<svg width="24" height="24" viewBox="0 0 24 24" fill="none" xmlns="http://www.w3.org/2000/svg">
<path d="M19.3664 1.84804H18.4712V0.94221C18.4712 0.424659 18.0516 0.00512695 17.5341 0.00512695C17.0165 0.00512695 16.597 0.424659 16.597 0.94221V1.84804H7.40295V0.94221C7.40295 0.424659 6.98342 0.00512695 6.46587 0.00512695C5.94832 0.00512695 5.52879 0.424659 5.52879 0.94221V1.84804H4.63364C2.07864 1.84804 0 3.92668 0 6.48163V19.3608C0 21.9158 2.07864 23.9944 4.63364 23.9944H19.3664C21.9214 23.9944 24 21.9158 24 19.3608V6.48163C24 3.92668 21.9214 1.84804 19.3664 1.84804ZM4.63364 3.72221H5.52879V5.54952C5.52879 6.06707 5.94832 6.4866 6.46587 6.4866C6.98342 6.4866 7.40295 6.06707 7.40295 5.54952V3.72221H16.597V5.54952C16.597 6.06707 17.0166 6.4866 17.5341 6.4866C18.0517 6.4866 18.4712 6.06707 18.4712 5.54952V3.72221H19.3664C20.8879 3.72221 22.1258 4.96009 22.1258 6.48163V7.37683H1.87417V6.48163C1.87417 4.96009 3.11205 3.72221 4.63364 3.72221ZM19.3664 22.1203H4.63364C3.11205 22.1203 1.87417 20.8824 1.87417 19.3608V9.25099H22.1258V19.3608C22.1258 20.8824 20.8879 22.1203 19.3664 22.1203ZM8.32443 12.9369C8.32443 13.4544 7.9049 13.874 7.38735 13.874H5.54444C5.02689 13.874 4.60735 13.4544 4.60735 12.9369C4.60735 12.4193 5.02689 11.9998 5.54444 11.9998H7.38735C7.90485 11.9998 8.32443 12.4193 8.32443 12.9369ZM19.3927 12.9369C19.3927 13.4544 18.9732 13.874 18.4556 13.874H16.6127C16.0951 13.874 15.6756 13.4544 15.6756 12.9369C15.6756 12.4193 16.0951 11.9998 16.6127 11.9998H18.4556C18.9731 11.9998 19.3927 12.4193 19.3927 12.9369ZM13.8532 12.9369C13.8532 13.4544 13.4337 13.874 12.9161 13.874H11.0732C10.5557 13.874 10.1361 13.4544 10.1361 12.9369C10.1361 12.4193 10.5557 11.9998 11.0732 11.9998H12.9161C13.4336 11.9998 13.8532 12.4193 13.8532 12.9369ZM8.32443 18.4657C8.32443 18.9832 7.9049 19.4027 7.38735 19.4027H5.54444C5.02689 19.4027 4.60735 18.9832 4.60735 18.4657C4.60735 17.9481 5.02689 17.5286 5.54444 17.5286H7.38735C7.90485 17.5286 8.32443 17.9481 8.32443 18.4657ZM19.3927 18.4657C19.3927 18.9832 18.9732 19.4027 18.4556 19.4027H16.6127C16.0951 19.4027 15.6756 18.9832 15.6756 18.4657C15.6756 17.9481 16.0951 17.5286 16.6127 17.5286H18.4556C18.9731 17.5286 19.3927 17.9481 19.3927 18.4657ZM13.8532 18.4657C13.8532 18.9832 13.4337 19.4027 12.9161 19.4027H11.0732C10.5557 19.4027 10.1361 18.9832 10.1361 18.4657C10.1361 17.9481 10.5557 17.5286 11.0732 17.5286H12.9161C13.4336 17.5286 13.8532 17.9481 13.8532 18.4657Z" fill="#B8B8B8"/>
</svg>
