<svg width="27" height="27" viewBox="0 0 27 27" fill="none" xmlns="http://www.w3.org/2000/svg">
<path d="M23.5059 1.58813H21.1235V3.97049C21.1235 4.44696 20.7265 4.76461 20.3294 4.76461C19.9324 4.76461 19.5353 4.44696 19.5353 3.97049V1.58813H6.82942V3.97049C6.82942 4.44696 6.43236 4.76461 6.0353 4.76461C5.63825 4.76461 5.24119 4.44696 5.24119 3.97049V1.58813H2.85883C1.66766 1.58813 0.794128 2.62049 0.794128 3.97049V6.82931H26.2059V3.97049C26.2059 2.62049 24.7765 1.58813 23.5059 1.58813ZM0.794128 8.49696V23.0293C0.794128 24.4587 1.66766 25.4117 2.93825 25.4117H23.5853C24.8559 25.4117 26.2853 24.3793 26.2853 23.0293V8.49696H0.794128ZM7.86177 21.8381H5.95589C5.63825 21.8381 5.3206 21.5999 5.3206 21.2028V19.2175C5.3206 18.8999 5.55883 18.5823 5.95589 18.5823H7.94119C8.25883 18.5823 8.57648 18.8205 8.57648 19.2175V21.2028C8.49707 21.5999 8.25883 21.8381 7.86177 21.8381ZM7.86177 14.6911H5.95589C5.63825 14.6911 5.3206 14.4528 5.3206 14.0558V12.0705C5.3206 11.7528 5.55883 11.4352 5.95589 11.4352H7.94119C8.25883 11.4352 8.57648 11.6734 8.57648 12.0705V14.0558C8.49707 14.4528 8.25883 14.6911 7.86177 14.6911ZM14.2147 21.8381H12.2294C11.9118 21.8381 11.5941 21.5999 11.5941 21.2028V19.2175C11.5941 18.8999 11.8324 18.5823 12.2294 18.5823H14.2147C14.5324 18.5823 14.85 18.8205 14.85 19.2175V21.2028C14.85 21.5999 14.6118 21.8381 14.2147 21.8381ZM14.2147 14.6911H12.2294C11.9118 14.6911 11.5941 14.4528 11.5941 14.0558V12.0705C11.5941 11.7528 11.8324 11.4352 12.2294 11.4352H14.2147C14.5324 11.4352 14.85 11.6734 14.85 12.0705V14.0558C14.85 14.4528 14.6118 14.6911 14.2147 14.6911ZM20.5677 21.8381H18.5824C18.2647 21.8381 17.9471 21.5999 17.9471 21.2028V19.2175C17.9471 18.8999 18.1853 18.5823 18.5824 18.5823H20.5677C20.8853 18.5823 21.203 18.8205 21.203 19.2175V21.2028C21.203 21.5999 20.9647 21.8381 20.5677 21.8381ZM20.5677 14.6911H18.5824C18.2647 14.6911 17.9471 14.4528 17.9471 14.0558V12.0705C17.9471 11.7528 18.1853 11.4352 18.5824 11.4352H20.5677C20.8853 11.4352 21.203 11.6734 21.203 12.0705V14.0558C21.203 14.4528 20.9647 14.6911 20.5677 14.6911Z" fill="#AB85FF"/>
</svg>
