<svg width="158" height="70" viewBox="0 0 158 70" fill="none" xmlns="http://www.w3.org/2000/svg">
<path style="mix-blend-mode:overlay" d="M130.561 13.5533C119.907 13.2816 110.547 18.9565 105.551 27.4989C102.181 25.5369 98.2982 24.42 94.115 24.42C92.1287 24.42 90.2027 24.6615 88.3969 25.1444C84.1535 10.5951 70.761 0 54.9007 0C37.5657 0 23.1801 12.6779 20.4715 29.3101C20.4113 29.3101 20.3511 29.3101 20.2909 29.3101C8.10225 29.3101 -1.58844 40.1164 0.21729 52.6736C1.66187 62.7857 10.7507 70 20.923 70H129.868C145.789 70 158.61 56.7788 157.978 40.6899C157.436 26.0198 145.217 13.9457 130.591 13.5834L130.561 13.5533Z" fill="url(#paint0_linear_5_1344)"/>
<defs>
<linearGradient id="paint0_linear_5_1344" x1="78.947" y1="70" x2="78.947" y2="-7.48599" gradientUnits="userSpaceOnUse">
<stop stop-color="white" stop-opacity="0"/>
<stop offset="1" stop-color="white"/>
</linearGradient>
</defs>
</svg>
