<svg width="18" height="18" viewBox="0 0 18 18" fill="none" xmlns="http://www.w3.org/2000/svg">
<path d="M9 18C6.59602 18 4.33589 17.0639 2.63602 15.364C0.936141 13.6641 0 11.404 0 9C0 6.59602 0.936176 4.33593 2.63602 2.63602C4.33586 0.936106 6.59602 0 9 0C11.404 0 13.6641 0.936141 15.364 2.63602C17.0639 4.33589 18 6.59602 18 9C18 11.404 17.0638 13.6641 15.364 15.364C13.6641 17.0639 11.404 18 9 18ZM9 1.125C4.65771 1.125 1.125 4.65771 1.125 9C1.125 13.3423 4.65771 16.875 9 16.875C13.3423 16.875 16.875 13.3423 16.875 9C16.875 4.65771 13.3423 1.125 9 1.125Z" fill="#80DBFF"/>
<path d="M9 8.4375C8.22459 8.4375 7.59375 7.80666 7.59375 7.03125C7.59375 6.25584 8.22459 5.625 9 5.625C9.77541 5.625 10.4062 6.25584 10.4062 7.03125C10.4062 7.34189 10.6581 7.59375 10.9688 7.59375C11.2794 7.59375 11.5312 7.34189 11.5312 7.03125C11.5312 5.82887 10.6883 4.82034 9.5625 4.56377V3.9375C9.5625 3.62686 9.31068 3.375 9 3.375C8.68932 3.375 8.4375 3.62686 8.4375 3.9375V4.56377C7.31173 4.82034 6.46875 5.82887 6.46875 7.03125C6.46875 8.42699 7.60426 9.5625 9 9.5625C9.77541 9.5625 10.4062 10.1933 10.4062 10.9688C10.4062 11.7442 9.77541 12.375 9 12.375C8.22459 12.375 7.59375 11.7442 7.59375 10.9688C7.59375 10.6581 7.34193 10.4062 7.03125 10.4062C6.72057 10.4062 6.46875 10.6581 6.46875 10.9688C6.46875 12.1711 7.31173 13.1797 8.4375 13.4362V14.0625C8.4375 14.3731 8.68932 14.625 9 14.625C9.31068 14.625 9.5625 14.3731 9.5625 14.0625V13.4362C10.6883 13.1797 11.5312 12.1711 11.5312 10.9688C11.5312 9.57301 10.3957 8.4375 9 8.4375Z" fill="#80DBFF"/>
</svg>
