<svg width="208" height="26" viewBox="0 0 208 26" fill="none" xmlns="http://www.w3.org/2000/svg">
<g clip-path="url(#clip0_2_1241)">
<path d="M155.681 9.78947C156.452 8.48513 156.59 7.20366 156.59 6.50343C156.59 4.71854 155.929 3.18993 154.601 1.91762C153.278 0.640732 151.689 0 149.834 0H141.721V26H151.175C153.198 26 160.649 26 160.649 16.9016C160.649 10.8375 156.818 10.0229 155.681 9.78947ZM147.136 5.19908H149.834C150.738 5.19908 151.19 6.05034 151.19 6.91991C151.19 7.78947 150.738 9.04805 149.834 9.04805H147.136V5.19908ZM151.175 20.7918H147.136V14.2563H151.175C151.956 14.2563 155.234 14.2563 155.234 17.524C155.234 20.7918 151.908 20.7918 151.175 20.7918Z" fill="white"/>
<path d="M75.5472 0V26H80.9618V0H75.5472Z" fill="white"/>
<path d="M36.3082 0V26H41.7228V0H36.3082Z" fill="white"/>
<path d="M204.351 12.4027C203.418 11.8581 202.528 11.4645 201.686 11.2265C200.844 10.9931 200.325 10.8421 200.135 10.778C199.735 10.6682 199.145 10.3753 198.37 9.89931C197.59 9.41876 197.204 8.71854 197.204 7.79405C197.204 7.08467 197.466 6.47597 197.989 5.96339C198.517 5.4508 199.155 5.19908 199.902 5.19908C200.649 5.19908 201.272 5.4508 201.805 5.96339C202.333 6.47597 202.6 7.08467 202.6 7.79405H208C208 5.65217 207.205 3.82151 205.616 2.29291C204.032 0.768879 202.124 0 199.902 0C197.68 0 195.758 0.764302 194.169 2.28833C192.579 3.81693 191.79 5.6476 191.79 7.78947C191.79 9.20824 192.151 10.3936 192.879 11.3455C193.602 12.2975 194.421 13.0618 195.334 13.643C196.243 14.2243 197.104 14.6453 197.913 14.9153C198.727 15.1854 199.217 15.3455 199.383 15.4005C199.707 15.5195 200.325 15.7391 201.234 16.0595C202.143 16.3844 202.6 17.0938 202.6 18.1876C202.6 18.9108 202.333 19.524 201.805 20.0275C201.272 20.5309 200.639 20.7872 199.902 20.7872C199.164 20.7872 198.517 20.5309 197.989 20.0275C197.466 19.524 197.204 18.9108 197.204 18.1876H191.79C191.79 20.3387 192.579 22.1785 194.169 23.7025C195.758 25.2311 197.666 25.9954 199.902 25.9954C202.138 25.9954 204.032 25.2311 205.616 23.7025C207.205 22.1785 208 20.3387 208 18.1876C208 16.7368 207.624 15.5469 206.877 14.6178C206.125 13.6888 205.283 12.9474 204.351 12.3982V12.4027Z" fill="white"/>
<path d="M181.617 0V15.5973C181.617 17.0252 181.084 18.2517 180.023 19.2677C178.962 20.2838 177.692 20.7918 176.217 20.7918C175.674 20.7918 175.16 20.7231 174.68 20.5858L172.548 25.4142C173.685 25.8078 174.908 26 176.217 26C179.19 26 181.736 24.984 183.853 22.9519C185.971 20.9199 187.032 18.4668 187.032 15.5973V0H181.617Z" fill="#7FB8FF"/>
<path d="M170.821 0H165.407V15.5973C165.407 18.4668 166.463 20.9199 168.575 22.9519C168.808 23.1762 169.051 23.3913 169.299 23.5927L171.62 18.3295C171.088 17.524 170.821 16.6133 170.821 15.5973V0Z" fill="#85FFB6"/>
<path d="M5.83329 11.9587L8.74993 19.0892L5.8428 25.9999H0L5.83329 11.9587Z" fill="#85FFB6"/>
<path d="M18.756 18.9703L15.7822 26L7.83163 7.13959L10.7959 0L18.756 18.9703Z" fill="#AB85FF"/>
<path d="M20.7591 0L17.8282 7.1762L25.7359 25.9954H31.5549L20.7591 0Z" fill="white"/>
<path d="M122.033 0V26H127.447V0H122.033Z" fill="white"/>
<path d="M91.5531 11.9587L94.4698 19.0892L91.5627 25.9999H85.7198L91.5531 11.9587Z" fill="#85FFB6"/>
<path d="M104.476 18.9703L101.502 26L93.5562 7.13959L96.5204 0L104.476 18.9703Z" fill="#AB85FF"/>
<path d="M106.479 0L103.553 7.1762L111.46 25.9954H117.275L106.479 0Z" fill="white"/>
<path d="M58.6374 12.357L61.4256 5.93141L59.2226 1.21288L58.6564 0.00463867L58.0664 1.23118L46.4855 26.0001H47.6227H51.1103H51.3434H52.2284L56.5344 16.9017H56.5249L58.6374 12.357Z" fill="#EB99FF"/>
<path d="M63.5238 10.4211L60.7547 16.8788L60.769 16.9017H60.7452L60.7499 16.9108L60.6215 17.1854L58.5184 22.0962H63.1955L63.2812 22.2884L65.0226 26.0001H65.9456H66.1645H69.6521H70.7893L63.5238 10.4211Z" fill="#80DBFF"/>
</g>
<defs>
<clipPath id="clip0_2_1241">
<rect width="208" height="26" fill="white"/>
</clipPath>
</defs>
</svg>
