<svg width="27" height="27" viewBox="0 0 27 27" fill="none" xmlns="http://www.w3.org/2000/svg">
<g clip-path="url(#clip0_12_686)">
<path d="M9.84375 19.8135V25.0312C9.84375 25.3957 10.0777 25.7186 10.4242 25.8334C10.5109 25.8615 10.5997 25.875 10.6875 25.875C10.9507 25.875 11.205 25.7512 11.367 25.5307L14.4191 21.3772L9.84375 19.8135Z" fill="#AB85FF"/>
<path d="M26.6455 0.156231C26.3867 -0.0271445 26.047 -0.0518944 25.7657 0.0954805L0.453242 13.3142C0.153992 13.4706 -0.0226331 13.7901 0.00211693 14.1265C0.0279919 14.464 0.251867 14.752 0.570242 14.8611L7.60712 17.2664L22.5932 4.45261L10.9967 18.424L22.7901 22.4549C22.8779 22.4841 22.9701 22.4999 23.0624 22.4999C23.2154 22.4999 23.3672 22.4582 23.5011 22.3772C23.7149 22.2467 23.86 22.0274 23.8971 21.781L26.9909 0.968481C27.037 0.653481 26.9042 0.340731 26.6455 0.156231Z" fill="#AB85FF"/>
</g>
<defs>
<clipPath id="clip0_12_686">
<rect width="27" height="27" fill="white"/>
</clipPath>
</defs>
</svg>
