<svg width="436" height="204" viewBox="0 0 436 204" fill="none" xmlns="http://www.w3.org/2000/svg">
<path d="M359.319 172.388L343.573 195.575C343.275 196.012 342.727 196.213 342.214 196.075L337.906 194.875C336.006 194.348 334.618 192.705 334.424 190.735L332.274 169.088L359.319 172.388V172.388Z" fill="url(#paint0_linear_5_1332)"/>
<path opacity="0.15" d="M359.319 172.388L343.573 195.575C343.275 196.012 342.727 196.213 342.214 196.075L337.906 194.875C336.006 194.348 334.618 192.705 334.424 190.735L332.274 169.088L359.319 172.388V172.388Z" fill="url(#paint1_linear_5_1332)"/>
<path d="M373.387 96.1842C373.387 96.1842 367.608 137.885 361.275 157.383L315.716 130.674C315.716 130.674 333.155 139.015 359.569 91.0392C359.597 90.9906 359.673 90.9421 359.715 90.9074C359.853 90.7896 360.006 90.6855 360.159 90.5954C360.394 90.4498 360.644 90.325 360.908 90.221C361.248 90.0823 361.595 89.9783 361.955 89.902C362.399 89.8119 362.85 89.7703 363.294 89.7703C363.842 89.7703 364.397 89.8327 364.931 89.9436C365.597 90.0754 366.242 90.2834 366.866 90.5399C367.643 90.8589 368.385 91.2472 369.1 91.684C369.988 92.2249 370.827 92.842 371.632 93.5007C371.958 93.7712 372.284 94.0485 372.603 94.3259C372.769 94.4715 372.929 94.624 373.095 94.7697C373.241 94.9083 373.387 95.0193 373.449 95.2134C373.47 95.2828 373.47 95.359 373.477 95.4284C373.477 95.6849 373.435 95.9345 373.394 96.1911L373.387 96.1842Z" fill="url(#paint2_linear_5_1332)"/>
<path opacity="0.3" d="M373.387 96.1842C373.387 96.1842 367.608 137.885 361.275 157.383L315.716 130.674C315.716 130.674 333.155 139.015 359.569 91.0392C359.597 90.9906 359.673 90.9421 359.715 90.9074C359.853 90.7896 360.006 90.6855 360.159 90.5954C360.394 90.4498 360.644 90.325 360.908 90.221C361.248 90.0823 361.595 89.9783 361.955 89.902C362.399 89.8119 362.85 89.7703 363.294 89.7703C363.842 89.7703 364.397 89.8327 364.931 89.9436C365.597 90.0754 366.242 90.2834 366.866 90.5399C367.643 90.8589 368.385 91.2472 369.1 91.684C369.988 92.2249 370.827 92.842 371.632 93.5007C371.958 93.7712 372.284 94.0485 372.603 94.3259C372.769 94.4715 372.929 94.624 373.095 94.7697C373.241 94.9083 373.387 95.0193 373.449 95.2134C373.47 95.2828 373.47 95.359 373.477 95.4284C373.477 95.6849 373.435 95.9345 373.394 96.1911L373.387 96.1842Z" fill="url(#paint3_linear_5_1332)"/>
<path d="M352.424 149.888L247.356 94.1248L72.4371 9.37119C72.4371 9.37119 60.9016 3.69922 48.714 1.1822C45.0585 0.426401 41.3405 -0.0451157 37.8583 0.00342193C34.3761 0.0519595 31.1298 0.620541 28.4107 1.95186C28.4107 1.95186 1.88528 -2.26398 0.0956475 13.7326C-1.69399 29.7223 22.2233 46.1003 22.2233 46.1003L158.867 112.874C158.867 112.874 255.222 157.425 286.028 164.192C316.833 170.96 373.595 178.421 364.39 169.088C355.192 159.755 352.418 149.894 352.418 149.894L352.424 149.888Z" fill="url(#paint4_linear_5_1332)"/>
<path opacity="0.65" d="M28.4107 1.95186C31.1298 0.620541 34.3761 0.0519595 37.8583 0.00342193C41.3405 -0.0451157 45.0585 0.426401 48.714 1.1822L65.2647 9.12156C65.2647 9.12156 65.1953 19.6334 29.9298 3.22771L28.4107 1.95186V1.95186Z" fill="url(#paint5_linear_5_1332)"/>
<path d="M210.391 135.756C210.391 135.756 196.04 136.956 192.759 144.063C189.852 150.345 174.502 192.268 170.999 201.871C170.589 202.988 169.403 203.591 168.259 203.286L159.852 201.046C156.272 200.089 153.359 197.482 152.027 194.022L111.663 89.3196L122.373 94.3606L210.391 135.756Z" fill="url(#paint6_linear_5_1332)"/>
<path opacity="0.41" d="M159.852 201.046L168.259 203.286C169.403 203.591 170.589 202.981 170.999 201.872C174.509 192.268 189.852 150.352 192.759 144.063C196.047 136.956 210.391 135.756 210.391 135.756L122.373 94.3608L159.845 201.046H159.852Z" fill="url(#paint7_linear_5_1332)"/>
<path d="M370.571 95.9624L356.58 153.438L354.672 152.079L368.913 94.4092L370.571 95.9624Z" fill="url(#paint8_linear_5_1332)"/>
<path d="M337.879 153.66L398.809 135.257C399.6 135.014 400.46 135.153 401.14 135.631L407.875 140.346C408.194 140.568 408.181 141.04 407.855 141.248L364.39 169.088L337.872 153.666L337.879 153.66Z" fill="url(#paint9_linear_5_1332)"/>
<path opacity="0.15" d="M337.879 153.66L398.809 135.257C399.6 135.014 400.46 135.153 401.14 135.631L407.875 140.346C408.194 140.568 408.181 141.04 407.855 141.248L364.39 169.088L337.872 153.666L337.879 153.66Z" fill="url(#paint10_linear_5_1332)"/>
<path d="M60.1246 15.4661L317.652 141.428L318.199 136.512L67.8728 13.0115L60.1246 15.4661Z" fill="url(#paint11_linear_5_1332)"/>
<path d="M258.066 94.9082L435.254 33.3209C436.017 33.0574 436.197 32.0659 435.58 31.5458L427.312 24.5911C424.759 22.4485 421.436 21.4569 418.128 21.866L143.689 55.5442C143.689 55.5442 123.31 59.4896 147.185 72.5462C171.061 85.5959 264.968 126 264.968 126C264.968 126 243.104 109.851 258.066 94.9221V94.9082Z" fill="url(#paint12_linear_5_1332)"/>
<path opacity="0.41" d="M147.185 72.5394C171.061 85.5891 264.968 125.993 264.968 125.993C264.968 125.993 243.104 109.844 258.066 94.9153L435.254 33.328C436.017 33.0645 436.197 32.0729 435.58 31.5529L427.312 24.5981C427.312 24.5981 138.314 54.1159 146.076 68.8228L147.179 72.5464L147.185 72.5394Z" fill="url(#paint13_linear_5_1332)"/>
<path d="M269.97 21.2627C270.122 20.7149 285.306 27.9678 286.173 28.467C291.542 31.5665 296.627 35.2623 300.976 39.7C302.904 41.6693 312.671 51.8899 307.913 54.0949C307.156 54.4416 306.296 54.4485 305.464 54.4C300.858 54.1434 296.433 52.6179 292.069 51.1133C288.074 49.7334 284.3 47.7157 280.659 45.5939C276.282 43.0422 271.967 40.3934 267.694 37.6822C267.056 37.2801 266.571 36.9542 265.939 36.5451L269.97 21.2627Z" fill="url(#paint14_linear_5_1332)"/>
<path d="M264.545 27.9195C263.38 32.17 264.157 36.0876 266.279 36.6701C268.402 37.2525 271.072 34.2848 272.238 30.0343C273.403 25.7838 272.626 21.8661 270.504 21.2837C268.381 20.7012 265.71 23.6689 264.545 27.9195Z" fill="url(#paint15_linear_5_1332)"/>
<path opacity="0.2" d="M264.545 27.9195C263.38 32.17 264.157 36.0876 266.279 36.6701C268.402 37.2525 271.072 34.2848 272.238 30.0343C273.403 25.7838 272.626 21.8661 270.504 21.2837C268.381 20.7012 265.71 23.6689 264.545 27.9195Z" fill="black"/>
<path opacity="0.2" d="M266.023 28.3286C265.301 30.9427 265.78 33.3557 267.091 33.7163C268.402 34.0769 270.046 32.2463 270.76 29.6322C271.482 27.0181 271.003 24.6051 269.692 24.2445C268.381 23.884 266.737 25.7145 266.023 28.3286Z" fill="url(#paint16_linear_5_1332)"/>
<path opacity="0.7" d="M268.79 28.6336C269.2 27.1428 269.914 25.9294 270.691 25.2083C271.177 26.2206 271.246 27.8709 270.76 29.6252C270.351 31.116 269.637 32.3294 268.86 33.0505C268.374 32.0382 268.305 30.3879 268.79 28.6336Z" fill="url(#paint17_linear_5_1332)"/>
<path d="M286.166 28.4673C286.166 28.4673 313.219 34.5761 322.639 45.1712C322.639 45.1712 306.824 42.2242 303.785 43.0632C303.785 43.0632 291.23 34.3195 286.166 28.4673V28.4673Z" fill="url(#paint18_linear_5_1332)"/>
<path opacity="0.3" d="M286.166 28.4673C286.166 28.4673 313.219 34.5761 322.639 45.1712C322.639 45.1712 306.824 42.2242 303.785 43.0632C303.785 43.0632 291.23 34.3195 286.166 28.4673V28.4673Z" fill="url(#paint19_linear_5_1332)"/>
<path d="M207.062 29.1745C207.214 28.6268 222.399 35.8797 223.266 36.3789C228.635 39.4784 233.719 43.1742 238.068 47.6119C239.997 49.5811 249.763 59.8018 245.005 62.0068C244.249 62.3534 243.389 62.3604 242.556 62.3118C237.95 62.0553 233.525 60.5298 229.162 59.0251C225.166 57.6453 221.393 55.6275 217.751 53.5057C213.374 50.954 209.06 48.3053 204.787 45.5941C204.149 45.1919 203.663 44.866 203.032 44.4569L207.062 29.1745V29.1745Z" fill="url(#paint20_linear_5_1332)"/>
<path d="M201.638 35.8311C200.472 40.0816 201.249 43.9993 203.372 44.5817C205.494 45.1642 208.165 42.1964 209.33 37.9459C210.495 33.6954 209.719 29.7777 207.596 29.1953C205.473 28.6128 202.803 31.5806 201.638 35.8311Z" fill="url(#paint21_linear_5_1332)"/>
<path opacity="0.2" d="M201.638 35.8311C200.472 40.0816 201.249 43.9993 203.372 44.5817C205.494 45.1642 208.165 42.1964 209.33 37.9459C210.495 33.6954 209.719 29.7777 207.596 29.1953C205.473 28.6128 202.803 31.5806 201.638 35.8311Z" fill="url(#paint22_linear_5_1332)"/>
<path opacity="0.2" d="M203.115 36.2332C202.394 38.8473 202.872 41.2603 204.183 41.6208C205.494 41.9814 207.138 40.1508 207.853 37.5368C208.574 34.9227 208.095 32.5096 206.784 32.1491C205.473 31.7885 203.829 33.6191 203.115 36.2332Z" fill="url(#paint23_linear_5_1332)"/>
<path opacity="0.7" d="M205.883 36.5452C206.292 35.0544 207.006 33.841 207.783 33.1199C208.269 34.1322 208.338 35.7825 207.853 37.5368C207.443 39.0276 206.729 40.241 205.952 40.9622C205.466 39.9498 205.397 38.2995 205.883 36.5452Z" fill="url(#paint24_linear_5_1332)"/>
<path d="M223.259 36.3789C223.259 36.3789 250.311 42.4877 259.731 53.0828C259.731 53.0828 243.916 50.1358 240.878 50.9749C240.878 50.9749 228.322 42.2312 223.259 36.3789V36.3789Z" fill="url(#paint25_linear_5_1332)"/>
<path opacity="0.3" d="M223.259 36.3789C223.259 36.3789 250.311 42.4877 259.731 53.0828C259.731 53.0828 243.916 50.1358 240.878 50.9749C240.878 50.9749 228.322 42.2312 223.259 36.3789V36.3789Z" fill="url(#paint26_linear_5_1332)"/>
<path d="M110.026 127.207C109.825 127.602 122.297 131.318 123.046 131.485C127.735 132.497 132.563 133.017 137.356 132.733C139.486 132.608 150.383 131.818 148.802 128.08C148.552 127.491 148.059 127.04 147.56 126.638C144.785 124.398 141.463 122.97 138.182 121.569C135.178 120.287 131.967 119.482 128.783 118.81C124.954 117.998 121.104 117.277 117.247 116.612C116.672 116.514 116.228 116.445 115.652 116.355L110.026 127.2V127.207Z" fill="url(#paint27_linear_5_1332)"/>
<path d="M110.373 120.578C111.913 117.541 114.389 115.696 115.908 116.466C117.428 117.236 117.414 120.321 115.881 123.358C114.341 126.395 111.864 128.24 110.345 127.47C108.826 126.701 108.84 123.615 110.373 120.578Z" fill="url(#paint28_linear_5_1332)"/>
<path opacity="0.2" d="M110.373 120.578C111.913 117.541 114.389 115.696 115.908 116.466C117.428 117.236 117.414 120.321 115.881 123.358C114.341 126.395 111.864 128.24 110.345 127.47C108.826 126.701 108.84 123.615 110.373 120.578Z" fill="black"/>
<path opacity="0.2" d="M111.427 121.112C112.371 119.24 113.904 118.109 114.833 118.581C115.77 119.052 115.763 120.952 114.813 122.824C113.869 124.697 112.336 125.827 111.4 125.355C110.463 124.884 110.47 122.984 111.421 121.112H111.427Z" fill="url(#paint29_linear_5_1332)"/>
<path opacity="0.7" d="M113.176 122.374C112.634 123.441 112.413 124.509 112.482 125.321C113.287 124.995 114.181 124.086 114.82 122.824C115.361 121.757 115.583 120.689 115.513 119.877C114.709 120.203 113.814 121.112 113.176 122.374Z" fill="url(#paint30_linear_5_1332)"/>
<path d="M123.046 131.485C123.046 131.485 141.719 142.025 152.617 140.839C152.617 140.839 142.025 134.321 140.721 132.268C140.721 132.268 128.991 130.764 123.046 131.485Z" fill="url(#paint31_linear_5_1332)"/>
<path opacity="0.3" d="M123.046 131.485C123.046 131.485 141.719 142.025 152.617 140.839C152.617 140.839 142.025 134.321 140.721 132.268C140.721 132.268 128.991 130.764 123.046 131.485Z" fill="url(#paint32_linear_5_1332)"/>
<path d="M116.38 154.492C116.179 154.887 128.651 158.604 129.4 158.77C134.089 159.782 138.917 160.302 143.71 160.018C145.84 159.893 156.737 159.103 155.156 155.365C154.906 154.776 154.413 154.325 153.914 153.923C151.139 151.684 147.817 150.255 144.536 148.854C141.532 147.572 138.321 146.767 135.137 146.095C131.308 145.283 127.458 144.562 123.601 143.897C123.025 143.8 122.581 143.73 122.006 143.64L116.38 154.485V154.492Z" fill="url(#paint33_linear_5_1332)"/>
<path d="M116.734 147.863C118.274 144.826 120.75 142.981 122.269 143.751C123.788 144.521 123.775 147.606 122.242 150.643C120.702 153.68 118.225 155.525 116.706 154.755C115.187 153.985 115.201 150.9 116.734 147.863Z" fill="url(#paint34_linear_5_1332)"/>
<path opacity="0.2" d="M116.734 147.863C118.274 144.826 120.75 142.981 122.269 143.751C123.788 144.521 123.775 147.606 122.242 150.643C120.702 153.68 118.225 155.525 116.706 154.755C115.187 153.985 115.201 150.9 116.734 147.863Z" fill="black"/>
<path opacity="0.2" d="M117.788 148.397C118.732 146.525 120.258 145.395 121.194 145.866C122.131 146.338 122.124 148.237 121.173 150.11C120.223 151.982 118.697 153.112 117.761 152.641C116.824 152.169 116.831 150.269 117.781 148.397H117.788Z" fill="url(#paint35_linear_5_1332)"/>
<path opacity="0.7" d="M119.536 149.659C118.995 150.727 118.773 151.794 118.843 152.606C119.647 152.28 120.542 151.372 121.18 150.11C121.721 149.042 121.943 147.974 121.874 147.163C121.069 147.488 120.174 148.404 119.536 149.659Z" fill="url(#paint36_linear_5_1332)"/>
<path d="M129.407 158.77C129.407 158.77 148.08 169.31 158.978 168.124C158.978 168.124 148.386 161.606 147.081 159.554C147.081 159.554 135.352 158.049 129.407 158.77Z" fill="url(#paint37_linear_5_1332)"/>
<path opacity="0.3" d="M129.407 158.77C129.407 158.77 148.08 169.31 158.978 168.124C158.978 168.124 148.386 161.606 147.081 159.554C147.081 159.554 135.352 158.049 129.407 158.77Z" fill="url(#paint38_linear_5_1332)"/>
<defs>
<linearGradient id="paint0_linear_5_1332" x1="13.8961" y1="30.3979" x2="388.883" y2="201.731" gradientUnits="userSpaceOnUse">
<stop stop-color="#DEFDFF"/>
<stop offset="1" stop-color="#9B7BFC"/>
</linearGradient>
<linearGradient id="paint1_linear_5_1332" x1="360.564" y1="175.419" x2="332.588" y2="183.816" gradientUnits="userSpaceOnUse">
<stop stop-color="#3370FF"/>
<stop offset="0.5" stop-color="#6809B0"/>
<stop offset="1" stop-color="#6412BD"/>
</linearGradient>
<linearGradient id="paint2_linear_5_1332" x1="39.1371" y1="-24.8498" x2="414.126" y2="146.491" gradientUnits="userSpaceOnUse">
<stop stop-color="#DEFDFF"/>
<stop offset="1" stop-color="#9B7BFC"/>
</linearGradient>
<linearGradient id="paint3_linear_5_1332" x1="380.526" y1="117.687" x2="317.798" y2="136.513" gradientUnits="userSpaceOnUse">
<stop stop-color="#3370FF"/>
<stop offset="0.5" stop-color="#6809B0"/>
<stop offset="1" stop-color="#6412BD"/>
</linearGradient>
<linearGradient id="paint4_linear_5_1332" x1="20.0031" y1="17.0126" x2="394.992" y2="188.353" gradientUnits="userSpaceOnUse">
<stop stop-color="#DEFDFF"/>
<stop offset="1" stop-color="#9B7BFC"/>
</linearGradient>
<linearGradient id="paint5_linear_5_1332" x1="27.9769" y1="-11.9904" x2="79.4758" y2="34.4678" gradientUnits="userSpaceOnUse">
<stop stop-color="#3370FF"/>
<stop offset="0.5" stop-color="#6809B0"/>
<stop offset="1" stop-color="#6412BD"/>
</linearGradient>
<linearGradient id="paint6_linear_5_1332" x1="-8.34081" y1="79.0547" x2="366.654" y2="250.393" gradientUnits="userSpaceOnUse">
<stop stop-color="#DEFDFF"/>
<stop offset="1" stop-color="#9B7BFC"/>
</linearGradient>
<linearGradient id="paint7_linear_5_1332" x1="208.89" y1="129.678" x2="139.544" y2="150.49" gradientUnits="userSpaceOnUse">
<stop stop-color="#3370FF"/>
<stop offset="0.5" stop-color="#6809B0"/>
<stop offset="1" stop-color="#6412BD"/>
</linearGradient>
<linearGradient id="paint8_linear_5_1332" x1="38.8672" y1="-24.3994" x2="413.914" y2="146.967" gradientUnits="userSpaceOnUse">
<stop stop-color="#DEFDFF"/>
<stop offset="1" stop-color="#9B7BFC"/>
</linearGradient>
<linearGradient id="paint9_linear_5_1332" x1="31.6438" y1="-8.43527" x2="406.624" y2="162.9" gradientUnits="userSpaceOnUse">
<stop stop-color="#DEFDFF"/>
<stop offset="1" stop-color="#9B7BFC"/>
</linearGradient>
<linearGradient id="paint10_linear_5_1332" x1="409.309" y1="143.586" x2="341.312" y2="163.994" gradientUnits="userSpaceOnUse">
<stop stop-color="#3370FF"/>
<stop offset="0.5" stop-color="#6809B0"/>
<stop offset="1" stop-color="#6412BD"/>
</linearGradient>
<linearGradient id="paint11_linear_5_1332" x1="291.751" y1="47.2677" x2="88.3115" y2="108.326" gradientUnits="userSpaceOnUse">
<stop stop-color="#111F40"/>
<stop offset="0.5" stop-color="#692D74"/>
<stop offset="1" stop-color="#2B042A"/>
</linearGradient>
<linearGradient id="paint12_linear_5_1332" x1="54.3065" y1="-58.0377" x2="429.286" y2="113.298" gradientUnits="userSpaceOnUse">
<stop stop-color="#DEFDFF"/>
<stop offset="1" stop-color="#9B7BFC"/>
</linearGradient>
<linearGradient id="paint13_linear_5_1332" x1="434.678" y1="26.824" x2="158.637" y2="109.671" gradientUnits="userSpaceOnUse">
<stop stop-color="#3370FF"/>
<stop offset="0.5" stop-color="#6809B0"/>
<stop offset="1" stop-color="#6412BD"/>
</linearGradient>
<linearGradient id="paint14_linear_5_1332" x1="57.9977" y1="-66.1525" x2="432.993" y2="105.186" gradientUnits="userSpaceOnUse">
<stop stop-color="#DEFDFF"/>
<stop offset="1" stop-color="#9B7BFC"/>
</linearGradient>
<linearGradient id="paint15_linear_5_1332" x1="58.5199" y1="-67.286" x2="433.514" y2="104.051" gradientUnits="userSpaceOnUse">
<stop stop-color="#DEFDFF"/>
<stop offset="1" stop-color="#9B7BFC"/>
</linearGradient>
<linearGradient id="paint16_linear_5_1332" x1="271.815" y1="27.6776" x2="265.417" y2="29.5977" gradientUnits="userSpaceOnUse">
<stop stop-color="#111F40"/>
<stop offset="0.5" stop-color="#692D74"/>
<stop offset="1" stop-color="#2B042A"/>
</linearGradient>
<linearGradient id="paint17_linear_5_1332" x1="271.959" y1="28.2061" x2="268.046" y2="29.3805" gradientUnits="userSpaceOnUse">
<stop stop-color="#111F40"/>
<stop offset="0.5" stop-color="#692D74"/>
<stop offset="1" stop-color="#2B042A"/>
</linearGradient>
<linearGradient id="paint18_linear_5_1332" x1="61.0692" y1="-72.8576" x2="436.058" y2="98.4828" gradientUnits="userSpaceOnUse">
<stop stop-color="#111F40"/>
<stop offset="0.5" stop-color="#692D74"/>
<stop offset="1" stop-color="#2B042A"/>
</linearGradient>
<linearGradient id="paint19_linear_5_1332" x1="319.064" y1="32.1486" x2="290.198" y2="40.8122" gradientUnits="userSpaceOnUse">
<stop stop-color="#111F40"/>
<stop offset="0.5" stop-color="#692D74"/>
<stop offset="1" stop-color="#2B042A"/>
</linearGradient>
<linearGradient id="paint20_linear_5_1332" x1="44.1535" y1="-35.8376" x2="419.148" y2="135.501" gradientUnits="userSpaceOnUse">
<stop stop-color="#DEFDFF"/>
<stop offset="1" stop-color="#9B7BFC"/>
</linearGradient>
<linearGradient id="paint21_linear_5_1332" x1="44.673" y1="-36.978" x2="419.67" y2="134.367" gradientUnits="userSpaceOnUse">
<stop stop-color="#DEFDFF"/>
<stop offset="1" stop-color="#9B7BFC"/>
</linearGradient>
<linearGradient id="paint22_linear_5_1332" x1="210.897" y1="34.9939" x2="200.513" y2="38.1104" gradientUnits="userSpaceOnUse">
<stop stop-color="#111F40"/>
<stop offset="0.5" stop-color="#692D74"/>
<stop offset="1" stop-color="#2B042A"/>
</linearGradient>
<linearGradient id="paint23_linear_5_1332" x1="208.904" y1="35.5916" x2="202.506" y2="37.5117" gradientUnits="userSpaceOnUse">
<stop stop-color="#111F40"/>
<stop offset="0.5" stop-color="#692D74"/>
<stop offset="1" stop-color="#2B042A"/>
</linearGradient>
<linearGradient id="paint24_linear_5_1332" x1="209.046" y1="36.1137" x2="205.133" y2="37.2881" gradientUnits="userSpaceOnUse">
<stop stop-color="#111F40"/>
<stop offset="0.5" stop-color="#692D74"/>
<stop offset="1" stop-color="#2B042A"/>
</linearGradient>
<linearGradient id="paint25_linear_5_1332" x1="47.2182" y1="-42.5409" x2="422.205" y2="128.793" gradientUnits="userSpaceOnUse">
<stop stop-color="#111F40"/>
<stop offset="0.5" stop-color="#692D74"/>
<stop offset="1" stop-color="#2B042A"/>
</linearGradient>
<linearGradient id="paint26_linear_5_1332" x1="256.153" y1="40.0628" x2="227.293" y2="48.7244" gradientUnits="userSpaceOnUse">
<stop stop-color="#111F40"/>
<stop offset="0.5" stop-color="#692D74"/>
<stop offset="1" stop-color="#2B042A"/>
</linearGradient>
<linearGradient id="paint27_linear_5_1332" x1="-2.45582" y1="66.1846" x2="372.524" y2="237.52" gradientUnits="userSpaceOnUse">
<stop stop-color="#DEFDFF"/>
<stop offset="1" stop-color="#9B7BFC"/>
</linearGradient>
<linearGradient id="paint28_linear_5_1332" x1="-3.43566" y1="68.3246" x2="371.551" y2="239.658" gradientUnits="userSpaceOnUse">
<stop stop-color="#DEFDFF"/>
<stop offset="1" stop-color="#9B7BFC"/>
</linearGradient>
<linearGradient id="paint29_linear_5_1332" x1="116.177" y1="120.794" x2="110.516" y2="122.493" gradientUnits="userSpaceOnUse">
<stop stop-color="#111F40"/>
<stop offset="0.5" stop-color="#692D74"/>
<stop offset="1" stop-color="#2B042A"/>
</linearGradient>
<linearGradient id="paint30_linear_5_1332" x1="116.355" y1="121.63" x2="112.084" y2="122.913" gradientUnits="userSpaceOnUse">
<stop stop-color="#111F40"/>
<stop offset="0.5" stop-color="#692D74"/>
<stop offset="1" stop-color="#2B042A"/>
</linearGradient>
<linearGradient id="paint31_linear_5_1332" x1="-3.99974" y1="69.5579" x2="370.989" y2="240.898" gradientUnits="userSpaceOnUse">
<stop stop-color="#111F40"/>
<stop offset="0.5" stop-color="#692D74"/>
<stop offset="1" stop-color="#2B042A"/>
</linearGradient>
<linearGradient id="paint32_linear_5_1332" x1="150.335" y1="132.152" x2="125.78" y2="139.521" gradientUnits="userSpaceOnUse">
<stop stop-color="#111F40"/>
<stop offset="0.5" stop-color="#692D74"/>
<stop offset="1" stop-color="#2B042A"/>
</linearGradient>
<linearGradient id="paint33_linear_5_1332" x1="-11.6674" y1="86.3577" x2="363.313" y2="257.693" gradientUnits="userSpaceOnUse">
<stop stop-color="#DEFDFF"/>
<stop offset="1" stop-color="#9B7BFC"/>
</linearGradient>
<linearGradient id="paint34_linear_5_1332" x1="-12.6561" y1="88.4929" x2="362.348" y2="259.836" gradientUnits="userSpaceOnUse">
<stop stop-color="#DEFDFF"/>
<stop offset="1" stop-color="#9B7BFC"/>
</linearGradient>
<linearGradient id="paint35_linear_5_1332" x1="122.539" y1="148.074" x2="116.872" y2="149.775" gradientUnits="userSpaceOnUse">
<stop stop-color="#111F40"/>
<stop offset="0.5" stop-color="#692D74"/>
<stop offset="1" stop-color="#2B042A"/>
</linearGradient>
<linearGradient id="paint36_linear_5_1332" x1="122.72" y1="148.918" x2="118.442" y2="150.202" gradientUnits="userSpaceOnUse">
<stop stop-color="#111F40"/>
<stop offset="0.5" stop-color="#692D74"/>
<stop offset="1" stop-color="#2B042A"/>
</linearGradient>
<linearGradient id="paint37_linear_5_1332" x1="-13.218" y1="89.7332" x2="361.77" y2="261.074" gradientUnits="userSpaceOnUse">
<stop stop-color="#111F40"/>
<stop offset="0.5" stop-color="#692D74"/>
<stop offset="1" stop-color="#2B042A"/>
</linearGradient>
<linearGradient id="paint38_linear_5_1332" x1="156.691" y1="159.434" x2="132.143" y2="166.802" gradientUnits="userSpaceOnUse">
<stop stop-color="#111F40"/>
<stop offset="0.5" stop-color="#692D74"/>
<stop offset="1" stop-color="#2B042A"/>
</linearGradient>
</defs>
</svg>
