<svg xmlns="http://www.w3.org/2000/svg" xmlns:xlink="http://www.w3.org/1999/xlink" width="1440" zoomAndPan="magnify" viewBox="0 0 1080 1054.499969" height="1406" preserveAspectRatio="xMidYMid meet" version="1.0"><defs><g/><clipPath id="1472a66625"><path d="M 0.257812 0 L 1079.742188 0 L 1079.742188 1054 L 0.257812 1054 Z M 0.257812 0 " clip-rule="nonzero"/></clipPath><clipPath id="e0a499e8a6"><path d="M 26 463.488281 L 225 463.488281 L 225 1041 L 26 1041 Z M 26 463.488281 " clip-rule="nonzero"/></clipPath><clipPath id="efa04e7cfd"><path d="M 330 602 L 460 602 L 460 1054 L 330 1054 Z M 330 602 " clip-rule="nonzero"/></clipPath><clipPath id="838bf8e607"><path d="M 84 102 L 372 102 L 372 282 L 84 282 Z M 84 102 " clip-rule="nonzero"/></clipPath><clipPath id="e856619026"><path d="M 138.816406 -43.910156 L 439.171875 39.992188 L 325.824219 445.757812 L 25.472656 361.859375 Z M 138.816406 -43.910156 " clip-rule="nonzero"/></clipPath><clipPath id="045ee1565b"><path d="M 138.816406 -43.910156 L 439.171875 39.992188 L 325.824219 445.757812 L 25.472656 361.859375 Z M 138.816406 -43.910156 " clip-rule="nonzero"/></clipPath><clipPath id="55282056da"><path d="M 42 286 L 102 286 L 102 356 L 42 356 Z M 42 286 " clip-rule="nonzero"/></clipPath><clipPath id="51d01a285d"><path d="M 138.816406 -43.910156 L 439.171875 39.992188 L 325.824219 445.757812 L 25.472656 361.859375 Z M 138.816406 -43.910156 " clip-rule="nonzero"/></clipPath><clipPath id="a5d484aacf"><path d="M 138.816406 -43.910156 L 439.171875 39.992188 L 325.824219 445.757812 L 25.472656 361.859375 Z M 138.816406 -43.910156 " clip-rule="nonzero"/></clipPath><clipPath id="9be639ed26"><path d="M 53 362 L 63 362 L 63 371 L 53 371 Z M 53 362 " clip-rule="nonzero"/></clipPath><clipPath id="f43ac241e5"><path d="M 138.816406 -43.910156 L 439.171875 39.992188 L 325.824219 445.757812 L 25.472656 361.859375 Z M 138.816406 -43.910156 " clip-rule="nonzero"/></clipPath><clipPath id="8065a31e05"><path d="M 138.816406 -43.910156 L 439.171875 39.992188 L 325.824219 445.757812 L 25.472656 361.859375 Z M 138.816406 -43.910156 " clip-rule="nonzero"/></clipPath><clipPath id="772b4cf7b2"><path d="M 54.4375 360.714844 L 64.371094 363.492188 L 61.945312 372.179688 L 52.011719 369.40625 Z M 54.4375 360.714844 " clip-rule="nonzero"/></clipPath><clipPath id="7ea8ed684f"><path d="M 54.4375 360.714844 L 64.371094 363.492188 L 61.964844 372.105469 L 52.03125 369.332031 Z M 54.4375 360.714844 " clip-rule="nonzero"/></clipPath><clipPath id="e2013b1384"><path d="M 359 37 L 432 37 L 432 114 L 359 114 Z M 359 37 " clip-rule="nonzero"/></clipPath><clipPath id="d4aefc8888"><path d="M 138.816406 -43.910156 L 439.171875 39.992188 L 325.824219 445.757812 L 25.472656 361.859375 Z M 138.816406 -43.910156 " clip-rule="nonzero"/></clipPath><clipPath id="33d12d4a27"><path d="M 138.816406 -43.910156 L 439.171875 39.992188 L 325.824219 445.757812 L 25.472656 361.859375 Z M 138.816406 -43.910156 " clip-rule="nonzero"/></clipPath><clipPath id="6d712c7ac9"><path d="M 369.015625 20.394531 L 439.785156 40.164062 L 416.554688 123.328125 L 345.785156 103.558594 Z M 369.015625 20.394531 " clip-rule="nonzero"/></clipPath><clipPath id="9c34a2210b"><path d="M 369.015625 20.394531 L 438.941406 39.925781 L 415.710938 123.089844 L 345.785156 103.558594 Z M 369.015625 20.394531 " clip-rule="nonzero"/></clipPath><clipPath id="8fefe92ce1"><path d="M 478 655 L 669 655 L 669 724 L 478 724 Z M 478 655 " clip-rule="nonzero"/></clipPath><clipPath id="752bcfd248"><path d="M 478.355469 665.398438 L 665.496094 655.339844 L 668.636719 713.730469 L 481.492188 723.785156 Z M 478.355469 665.398438 " clip-rule="nonzero"/></clipPath></defs><g clip-path="url(#1472a66625)"><path fill="#ffffff" d="M 0.257812 0 L 1079.742188 0 L 1079.742188 1061.496094 L 0.257812 1061.496094 Z M 0.257812 0 " fill-opacity="1" fill-rule="nonzero"/><path fill="#ffffff" d="M 0.257812 0 L 1079.742188 0 L 1079.742188 1054 L 0.257812 1054 Z M 0.257812 0 " fill-opacity="1" fill-rule="nonzero"/><path fill="#ffffff" d="M 0.257812 0 L 1079.742188 0 L 1079.742188 1054 L 0.257812 1054 Z M 0.257812 0 " fill-opacity="1" fill-rule="nonzero"/></g><path fill="#00c2cb" d="M 695.402344 638.792969 L 685.5625 716.667969 C 685.496094 717.191406 685.347656 717.6875 685.109375 718.15625 C 684.871094 718.628906 684.5625 719.042969 684.175781 719.40625 C 683.792969 719.765625 683.359375 720.050781 682.878906 720.261719 C 682.394531 720.472656 681.890625 720.59375 681.363281 720.625 L 677.917969 720.851562 C 677.371094 720.886719 676.847656 721.011719 676.351562 721.238281 C 675.851562 721.460938 675.40625 721.765625 675.019531 722.148438 C 674.628906 722.535156 674.320312 722.976562 674.089844 723.472656 C 673.863281 723.96875 673.730469 724.492188 673.691406 725.035156 L 672.789062 737.183594 L 672.789062 737.5625 L 672.246094 744.636719 L 668.4375 794.828125 L 663.039062 866.5 L 650.21875 1036.683594 C 650.175781 1037.257812 650.035156 1037.800781 649.789062 1038.316406 C 649.539062 1038.832031 649.207031 1039.285156 648.789062 1039.675781 C 648.371094 1040.066406 647.894531 1040.367188 647.359375 1040.574219 C 646.828125 1040.78125 646.277344 1040.886719 645.703125 1040.886719 L 84.949219 1040.886719 C 84.386719 1040.886719 83.84375 1040.789062 83.316406 1040.585938 C 82.789062 1040.386719 82.320312 1040.097656 81.902344 1039.71875 C 81.484375 1039.34375 81.148438 1038.902344 80.894531 1038.398438 C 80.644531 1037.898438 80.488281 1037.367188 80.433594 1036.804688 L 65.3125 888.539062 L 62.996094 865.851562 L 55.652344 793.925781 L 54.824219 785.792969 L 52.945312 767.277344 C 52.917969 766.988281 52.859375 766.703125 52.777344 766.421875 C 52.691406 766.140625 52.582031 765.871094 52.445312 765.613281 C 52.3125 765.355469 52.152344 765.113281 51.96875 764.886719 C 51.785156 764.65625 51.582031 764.449219 51.359375 764.261719 C 51.132812 764.074219 50.894531 763.90625 50.640625 763.765625 C 50.382812 763.625 50.117188 763.507812 49.839844 763.417969 C 49.5625 763.328125 49.277344 763.265625 48.988281 763.234375 C 48.695312 763.199219 48.40625 763.191406 48.113281 763.214844 L 46.355469 763.335938 C 45.828125 763.371094 45.316406 763.316406 44.808594 763.175781 C 44.304688 763.03125 43.835938 762.804688 43.410156 762.5 C 42.984375 762.191406 42.621094 761.824219 42.324219 761.390625 C 42.023438 760.957031 41.808594 760.484375 41.675781 759.976562 L 33.941406 731.375 C 33.855469 731.0625 33.800781 730.746094 33.78125 730.425781 C 33.761719 730.101562 33.777344 729.78125 33.828125 729.460938 C 33.878906 729.144531 33.960938 728.832031 34.078125 728.53125 C 34.195312 728.230469 34.339844 727.945312 34.519531 727.675781 C 34.695312 727.40625 34.902344 727.160156 35.132812 726.933594 C 35.363281 726.707031 35.613281 726.507812 35.886719 726.335938 C 36.160156 726.164062 36.449219 726.023438 36.753906 725.914062 C 37.054688 725.804688 37.367188 725.726562 37.6875 725.683594 L 337.339844 683.425781 C 337.882812 683.355469 338.398438 683.1875 338.882812 682.925781 C 339.367188 682.664062 339.789062 682.324219 340.148438 681.910156 C 340.507812 681.492188 340.785156 681.027344 340.972656 680.511719 C 341.164062 679.996094 341.257812 679.460938 341.25 678.910156 L 341.25 649.707031 C 341.246094 649.152344 341.339844 648.617188 341.53125 648.101562 C 341.726562 647.582031 342.003906 647.117188 342.367188 646.699219 C 342.730469 646.28125 343.152344 645.945312 343.640625 645.683594 C 344.128906 645.425781 344.644531 645.261719 345.195312 645.191406 L 452.550781 631.023438 C 452.878906 630.980469 453.207031 630.96875 453.535156 630.996094 C 453.867188 631.023438 454.1875 631.085938 454.503906 631.183594 C 454.820312 631.28125 455.125 631.410156 455.410156 631.574219 C 455.699219 631.738281 455.964844 631.933594 456.207031 632.15625 C 456.453125 632.378906 456.671875 632.625 456.863281 632.894531 C 457.050781 633.167969 457.210938 633.453125 457.339844 633.757812 C 457.464844 634.066406 457.558594 634.378906 457.617188 634.707031 C 457.675781 635.03125 457.695312 635.359375 457.683594 635.691406 L 456.734375 661.175781 C 456.71875 661.511719 456.742188 661.839844 456.800781 662.167969 C 456.859375 662.496094 456.949219 662.816406 457.078125 663.121094 C 457.207031 663.429688 457.367188 663.71875 457.5625 663.992188 C 457.753906 664.261719 457.972656 664.507812 458.222656 664.734375 C 458.46875 664.957031 458.738281 665.148438 459.027344 665.3125 C 459.316406 665.476562 459.621094 665.605469 459.941406 665.703125 C 460.261719 665.796875 460.585938 665.859375 460.917969 665.882812 C 461.25 665.90625 461.582031 665.894531 461.910156 665.84375 L 690.269531 633.75 C 690.617188 633.699219 690.960938 633.6875 691.308594 633.71875 C 691.65625 633.746094 691.996094 633.816406 692.324219 633.925781 C 692.65625 634.03125 692.972656 634.175781 693.269531 634.359375 C 693.566406 634.539062 693.839844 634.75 694.089844 634.996094 C 694.335938 635.242188 694.554688 635.507812 694.738281 635.804688 C 694.925781 636.097656 695.078125 636.410156 695.191406 636.738281 C 695.304688 637.070312 695.378906 637.40625 695.414062 637.753906 C 695.449219 638.101562 695.445312 638.445312 695.402344 638.792969 Z M 695.402344 638.792969 " fill-opacity="1" fill-rule="nonzero"/><g clip-path="url(#e0a499e8a6)"><path fill="#00c2cb" d="M 203.5 560.4375 L 224.566406 560.4375 L 203.5 527.316406 L 132 527.316406 L 126.566406 465.625 C 126.566406 465.339844 126.511719 465.0625 126.402344 464.796875 C 126.292969 464.53125 126.136719 464.296875 125.933594 464.09375 C 125.730469 463.890625 125.496094 463.734375 125.230469 463.621094 C 124.964844 463.511719 124.6875 463.457031 124.402344 463.457031 C 124.113281 463.457031 123.835938 463.511719 123.570312 463.621094 C 123.304688 463.734375 123.070312 463.890625 122.867188 464.09375 C 122.664062 464.296875 122.507812 464.53125 122.398438 464.796875 C 122.289062 465.0625 122.234375 465.339844 122.234375 465.625 L 117.71875 527.210938 L 44.382812 527.210938 L 26.070312 560.4375 L 44.382812 560.4375 L 44.382812 573.53125 L 33.503906 573.53125 L 57.820312 655.742188 L 87.914062 692.171875 L 87.914062 1040.808594 L 166.472656 1040.808594 L 166.472656 692.171875 L 196.5625 655.742188 L 217.464844 573.53125 L 203.5 573.53125 Z M 203.5 560.4375 " fill-opacity="1" fill-rule="nonzero"/></g><path fill="#03989e" d="M 57.820312 655.742188 L 33.503906 573.488281 L 217.464844 573.488281 L 196.5625 655.742188 Z M 57.820312 655.742188 " fill-opacity="1" fill-rule="nonzero"/><path stroke-linecap="butt" transform="matrix(1.504655, 0, 0, 1.505402, 26.071577, 463.638665)" fill-opacity="1" fill="#fefaed" fill-rule="nonzero" stroke-linejoin="miter" d="M 327.750318 140.329242 C 327.820413 137.179129 329.899898 137.910868 330.569694 140.20988 C 331.569197 143.580553 332.350626 146.650227 336.839301 164.549305 C 336.839301 165.299208 335.839798 165.91937 335.219328 164.860683 L 333.729161 158.781017 L 329.160006 159.660661 C 328.949721 161.26945 328.840685 164.310581 328.840685 165.750707 C 328.840685 166.57067 327.329748 166.420171 327.340133 165.810388 Z M 329.079527 156.181006 C 329.079527 156.419729 329.079527 157.750873 329.079527 158.020734 L 333.311187 157.218934 L 329.310581 142.220867 C 329.279427 144.288939 329.089911 154.061037 329.079527 156.181006 Z M 329.079527 156.181006 " stroke="#fefaed" stroke-width="0.71" stroke-opacity="1" stroke-miterlimit="10"/><path stroke-linecap="butt" transform="matrix(1.504655, 0, 0, 1.505402, 26.071577, 463.638665)" fill-opacity="1" fill="#fefaed" fill-rule="nonzero" stroke-linejoin="miter" d="M 342.000369 139.649399 L 344.38879 160.369047 C 344.505615 160.965856 344.588691 161.56526 344.640613 162.169853 C 344.640613 162.709576 344.090238 162.940515 343.511305 162.961274 C 342.761029 162.961274 342.60007 162.348896 342.509206 161.71057 L 341.000866 146.790347 C 340.730871 144.340836 340.25059 141.909488 340.209052 139.449597 C 340.201264 138.601091 341.909505 138.829435 342.000369 139.649399 Z M 342.000369 139.649399 " stroke="#fefaed" stroke-width="0.71" stroke-opacity="1" stroke-miterlimit="10"/><path stroke-linecap="butt" transform="matrix(1.504655, 0, 0, 1.505402, 26.071577, 463.638665)" fill-opacity="1" fill="#fefaed" fill-rule="nonzero" stroke-linejoin="miter" d="M 350.580514 149.930081 C 350.580514 148.868799 350.100233 142.68015 349.960043 141.079145 C 349.960043 140.739224 349.619953 137.749989 349.570627 137.37893 L 349.570627 137.23881 C 349.570627 136.460363 350.40917 136.239803 351.099736 136.180123 C 355.798696 135.980321 357.610781 139.280934 357.779528 143.180951 C 357.841835 143.829656 357.821066 144.475766 357.712029 145.119282 C 357.605589 145.762798 357.416073 146.38296 357.143481 146.974579 C 356.873485 147.568794 356.528203 148.116301 356.112825 148.619696 C 355.697447 149.123092 355.222359 149.561616 354.690157 149.94046 C 358.690763 151.510327 359.879781 157.019133 360.04074 160.830926 C 360.04074 161.451088 359.70065 161.700191 359.090564 161.728734 C 358.680378 161.728734 358.509035 161.728734 358.309135 161.220149 C 358.039139 158.669439 357.081174 151.46881 353.11951 151.640068 L 352.789804 151.68937 C 352.579519 155.560843 353.049415 159.429722 352.97932 163.319359 C 352.93259 163.394609 352.878071 163.464669 352.813169 163.526945 C 352.748266 163.589221 352.678171 163.641117 352.602884 163.687824 C 352.525 163.731936 352.444521 163.765669 352.358849 163.791617 C 352.273178 163.817565 352.18491 163.830539 352.096642 163.835729 C 352.005778 163.838324 351.917511 163.833134 351.831839 163.81497 C 351.743571 163.796806 351.660496 163.770858 351.580016 163.731936 C 351.499537 163.693014 351.42425 163.646307 351.354155 163.591816 C 351.28406 163.534729 351.224349 163.469859 351.169831 163.399799 C 351.11012 161.381028 350.699935 152.000748 350.580514 149.930081 Z M 352.421156 149.029678 C 354.819962 148.451033 356.040134 145.729065 355.938886 143.590932 C 355.868791 141.779747 354.939383 138.069153 352.499039 138.170351 C 352.369234 138.170351 351.310021 138.219652 351.320405 138.499893 Z M 352.421156 149.029678 " stroke="#fefaed" stroke-width="0.71" stroke-opacity="1" stroke-miterlimit="10"/><path stroke-linecap="butt" transform="matrix(1.504655, 0, 0, 1.505402, 26.071577, 463.638665)" fill-opacity="1" fill="#fefaed" fill-rule="nonzero" stroke-linejoin="miter" d="M 366.250637 163.490617 C 366.120831 159.489403 365.458823 141.131042 365.360171 137.140206 C 365.783337 136.683518 366.307751 136.43182 366.930817 136.390303 C 371.331225 136.200881 373.628782 139.789519 373.81051 143.878958 C 374.020795 148.749437 372.089289 151.559629 368.169162 154.08958 L 368.021184 156.181006 C 368.021184 157.299374 368.091279 162.520154 368.099067 163.620359 C 367.951089 164.199004 367.79013 164.380641 367.211197 164.398805 C 366.629669 164.419564 366.279194 164.240521 366.261021 163.630738 Z M 367.769361 150.350442 L 367.829072 151.819111 C 368.254834 151.707534 368.636462 151.505138 368.968764 151.219707 C 371.170266 149.320298 371.629777 147.151027 371.510356 144.390137 C 371.419492 142.270168 370.970365 138.300092 367.969262 138.39091 C 367.769361 138.39091 367.600614 138.39091 367.50975 138.678936 Z M 367.769361 150.350442 " stroke="#fefaed" stroke-width="0.71" stroke-opacity="1" stroke-miterlimit="10"/><path stroke-linecap="butt" transform="matrix(1.504655, 0, 0, 1.505402, 26.071577, 463.638665)" fill-opacity="1" fill="#fefaed" fill-rule="nonzero" stroke-linejoin="miter" d="M 383.610827 136.800285 C 391.170701 136.481122 393.229417 160.659667 385.760407 161.630131 C 385.630601 161.630131 385.490411 161.630131 385.360606 161.679432 C 382.499692 161.798794 380.85895 160.169246 379.900985 157.071029 C 379.368783 155.000362 375.048855 137.168749 383.610827 136.800285 Z M 381.469036 155.431102 C 381.790954 156.539091 383.050067 159.730721 384.768693 159.829325 C 384.90369 159.842299 385.036092 159.842299 385.17109 159.829325 C 387.450475 159.53092 388.029407 155.508947 388.260461 153.889778 C 388.688819 151.149647 388.590167 138.479134 383.751017 138.689315 L 383.481022 138.689315 C 378.358896 139.379537 380.71876 152.999755 381.469036 155.431102 Z M 381.469036 155.431102 " stroke="#fefaed" stroke-width="0.71" stroke-opacity="1" stroke-miterlimit="10"/><path stroke-linecap="butt" transform="matrix(1.504655, 0, 0, 1.505402, 26.071577, 463.638665)" fill-opacity="1" fill="#fefaed" fill-rule="nonzero" stroke-linejoin="miter" d="M 395.179096 147.999534 C 395.179096 147.000528 394.698815 140.749603 394.561221 139.151193 C 394.561221 138.811271 394.210746 135.819442 394.158824 135.450978 L 394.158824 135.310857 C 394.158824 134.529816 394.999964 134.309256 395.680145 134.309256 C 400.379105 134.109455 402.198978 137.410068 402.370322 141.310084 C 402.432628 141.95879 402.409263 142.6049 402.300227 143.245821 C 402.19119 143.889337 402.001674 144.506904 401.729082 145.098524 C 401.459087 145.692738 401.1164 146.23765 400.701022 146.741046 C 400.285645 147.241846 399.810557 147.682966 399.28095 148.059215 C 403.27896 149.629082 404.46019 155.140482 404.628938 158.960059 C 404.628938 159.569842 404.288847 159.829325 403.678761 159.850083 C 403.271172 159.850083 403.099829 159.850083 402.899928 159.338903 C 402.619548 156.790789 401.658987 149.600539 397.710303 149.769202 L 397.370213 149.821098 C 397.159928 153.679598 397.640208 157.551071 397.570113 161.451088 C 397.523383 161.526338 397.466269 161.593803 397.401366 161.656079 C 397.336463 161.71576 397.266368 161.770251 397.188485 161.814363 C 397.113198 161.858475 397.030122 161.894802 396.944451 161.918156 C 396.858779 161.944104 396.773107 161.957078 396.682243 161.959673 C 396.593976 161.964863 396.505708 161.957078 396.420036 161.938914 C 396.331769 161.920751 396.248693 161.892208 396.168214 161.853285 C 396.087734 161.816958 396.012447 161.767656 395.942352 161.71057 C 395.874853 161.656079 395.812546 161.591208 395.760624 161.521148 C 395.708702 159.46086 395.301113 150.059822 395.179096 147.999534 Z M 397.019738 147.099131 C 399.42114 146.520486 400.630928 143.808897 400.540064 141.660385 C 400.459584 139.859579 399.540561 136.1412 397.100217 136.250183 C 396.960027 136.250183 395.911199 136.299484 395.918987 136.569346 Z M 397.019738 147.099131 " stroke="#fefaed" stroke-width="0.71" stroke-opacity="1" stroke-miterlimit="10"/><path stroke-linecap="butt" transform="matrix(1.504655, 0, 0, 1.505402, 26.071577, 463.638665)" fill-opacity="1" fill="#fefaed" fill-rule="nonzero" stroke-linejoin="miter" d="M 410.750566 146.419288 C 410.631145 143.801113 410.319612 137.189508 410.28067 137.160965 L 407.549562 137.160965 C 406.448811 136.898888 405.9893 135.86096 407.640426 135.380918 C 410.298843 135.380918 412.889761 135.160358 415.639042 135.240797 C 417.181132 135.310857 417.149978 137.020845 416.16086 137.070146 L 412.440634 137.160965 C 412.440634 137.160965 412.739187 147.999534 412.861204 152.400351 C 412.920914 153.791175 412.861204 156.398971 412.970241 158.059656 L 412.970241 158.500776 C 412.739187 159.499782 411.329499 159.289602 411.049119 158.350276 C 410.999793 155.939687 410.849218 148.879178 410.750566 146.419288 Z M 410.750566 146.419288 " stroke="#fefaed" stroke-width="0.71" stroke-opacity="1" stroke-miterlimit="10"/><path fill="#00c2cb" d="M 72.203125 663.855469 C 71.84375 663.863281 71.496094 663.804688 71.15625 663.683594 C 70.816406 663.5625 70.511719 663.386719 70.234375 663.15625 C 69.957031 662.925781 69.730469 662.65625 69.550781 662.34375 C 69.375 662.03125 69.253906 661.699219 69.195312 661.34375 L 52.042969 558.886719 C 51.976562 558.492188 51.984375 558.097656 52.074219 557.707031 C 52.164062 557.320312 52.324219 556.960938 52.554688 556.632812 C 52.785156 556.308594 53.070312 556.039062 53.410156 555.824219 C 53.75 555.613281 54.113281 555.472656 54.507812 555.40625 C 54.902344 555.339844 55.296875 555.351562 55.683594 555.441406 C 56.074219 555.527344 56.433594 555.691406 56.757812 555.921875 C 57.085938 556.152344 57.355469 556.4375 57.566406 556.777344 C 57.777344 557.117188 57.917969 557.484375 57.984375 557.875 L 75.183594 660.394531 C 75.25 660.789062 75.238281 661.179688 75.148438 661.566406 C 75.058594 661.957031 74.894531 662.3125 74.664062 662.636719 C 74.433594 662.960938 74.148438 663.230469 73.8125 663.441406 C 73.472656 663.652344 73.109375 663.789062 72.714844 663.855469 Z M 72.203125 663.855469 " fill-opacity="1" fill-rule="nonzero"/><path fill="#00c2cb" d="M 106.132812 663.855469 C 105.753906 663.859375 105.386719 663.789062 105.03125 663.652344 C 104.679688 663.511719 104.363281 663.316406 104.082031 663.054688 C 103.804688 662.796875 103.582031 662.496094 103.414062 662.15625 C 103.25 661.8125 103.152344 661.453125 103.125 661.070312 L 95.285156 558.613281 C 95.253906 558.214844 95.300781 557.824219 95.425781 557.441406 C 95.546875 557.0625 95.738281 556.71875 96 556.414062 C 96.261719 556.109375 96.570312 555.867188 96.925781 555.683594 C 97.285156 555.503906 97.660156 555.398438 98.0625 555.367188 C 98.460938 555.335938 98.851562 555.382812 99.230469 555.507812 C 99.613281 555.628906 99.957031 555.824219 100.257812 556.085938 C 100.5625 556.34375 100.804688 556.65625 100.988281 557.011719 C 101.167969 557.371094 101.273438 557.75 101.304688 558.148438 L 109.128906 660.664062 C 109.152344 661.058594 109.101562 661.445312 108.976562 661.820312 C 108.851562 662.195312 108.65625 662.53125 108.398438 662.828125 C 108.140625 663.128906 107.832031 663.367188 107.480469 663.542969 C 107.128906 663.722656 106.753906 663.828125 106.359375 663.855469 Z M 106.132812 663.855469 " fill-opacity="1" fill-rule="nonzero"/><path fill="#00c2cb" d="M 144.230469 663.855469 L 143.960938 663.855469 C 143.5625 663.824219 143.1875 663.714844 142.832031 663.527344 C 142.476562 663.34375 142.171875 663.097656 141.914062 662.792969 C 141.65625 662.484375 141.46875 662.140625 141.347656 661.761719 C 141.230469 661.378906 141.1875 660.988281 141.222656 660.589844 L 150.25 558.085938 C 150.285156 557.6875 150.394531 557.3125 150.578125 556.957031 C 150.761719 556.601562 151.007812 556.296875 151.316406 556.039062 C 151.621094 555.78125 151.964844 555.59375 152.347656 555.472656 C 152.726562 555.355469 153.117188 555.3125 153.515625 555.347656 C 153.914062 555.382812 154.289062 555.496094 154.640625 555.679688 C 154.992188 555.867188 155.296875 556.113281 155.554688 556.417969 C 155.808594 556.722656 155.996094 557.066406 156.113281 557.449219 C 156.234375 557.828125 156.273438 558.21875 156.238281 558.613281 L 147.210938 661.117188 C 147.175781 661.488281 147.078125 661.84375 146.914062 662.179688 C 146.746094 662.515625 146.527344 662.808594 146.25 663.0625 C 145.976562 663.316406 145.664062 663.511719 145.316406 663.648438 C 144.96875 663.785156 144.605469 663.855469 144.230469 663.855469 Z M 144.230469 663.855469 " fill-opacity="1" fill-rule="nonzero"/><path fill="#00c2cb" d="M 176.671875 663.855469 C 176.476562 663.878906 176.28125 663.878906 176.085938 663.855469 C 175.691406 663.78125 175.332031 663.632812 174.996094 663.410156 C 174.664062 663.191406 174.386719 662.914062 174.164062 662.582031 C 173.941406 662.25 173.789062 661.886719 173.710938 661.496094 C 173.632812 661.105469 173.632812 660.710938 173.707031 660.320312 L 194.019531 557.816406 C 194.082031 557.410156 194.21875 557.027344 194.433594 556.675781 C 194.648438 556.324219 194.921875 556.03125 195.257812 555.789062 C 195.59375 555.550781 195.964844 555.390625 196.367188 555.304688 C 196.769531 555.21875 197.175781 555.214844 197.578125 555.292969 C 197.984375 555.371094 198.355469 555.527344 198.695312 555.761719 C 199.039062 555.992188 199.316406 556.285156 199.539062 556.632812 C 199.761719 556.980469 199.902344 557.359375 199.96875 557.765625 C 200.035156 558.171875 200.019531 558.574219 199.917969 558.976562 L 179.621094 661.492188 C 179.546875 661.828125 179.421875 662.144531 179.238281 662.4375 C 179.058594 662.726562 178.832031 662.980469 178.5625 663.195312 C 178.296875 663.410156 178 663.574219 177.675781 663.6875 C 177.351562 663.800781 177.015625 663.859375 176.671875 663.855469 Z M 176.671875 663.855469 " fill-opacity="1" fill-rule="nonzero"/><path fill="#03989e" d="M 601.8125 794.660156 L 599.074219 730.667969 C 599.054688 730.269531 598.960938 729.886719 598.792969 729.523438 C 598.625 729.164062 598.390625 728.847656 598.097656 728.578125 C 597.800781 728.308594 597.46875 728.105469 597.089844 727.96875 C 596.714844 727.832031 596.328125 727.773438 595.929688 727.792969 C 595.53125 727.808594 595.148438 727.902344 594.789062 728.074219 C 594.425781 728.242188 594.109375 728.472656 593.839844 728.769531 C 593.570312 729.0625 593.367188 729.398438 593.234375 729.773438 C 593.097656 730.152344 593.039062 730.539062 593.054688 730.9375 L 595.792969 794.917969 L 505.964844 798.742188 L 503.332031 737.019531 C 503.316406 736.621094 503.222656 736.238281 503.054688 735.875 C 502.886719 735.511719 502.652344 735.195312 502.359375 734.925781 C 502.0625 734.65625 501.726562 734.449219 501.351562 734.3125 C 500.976562 734.175781 500.585938 734.117188 500.1875 734.136719 C 499.789062 734.152344 499.40625 734.246094 499.042969 734.417969 C 498.683594 734.589844 498.367188 734.820312 498.097656 735.117188 C 497.828125 735.414062 497.625 735.75 497.488281 736.125 C 497.355469 736.503906 497.296875 736.890625 497.3125 737.289062 L 499.960938 799.011719 L 261.730469 809.171875 L 259.1875 749.890625 C 259.171875 749.492188 259.078125 749.109375 258.910156 748.746094 C 258.742188 748.382812 258.511719 748.066406 258.21875 747.796875 C 257.921875 747.523438 257.589844 747.320312 257.214844 747.183594 C 256.835938 747.046875 256.449219 746.984375 256.050781 747 C 255.652344 747.019531 255.269531 747.113281 254.90625 747.28125 C 254.542969 747.449219 254.226562 747.679688 253.957031 747.976562 C 253.6875 748.269531 253.484375 748.605469 253.347656 748.984375 C 253.210938 749.359375 253.152344 749.746094 253.167969 750.148438 L 255.695312 809.429688 L 165.882812 813.253906 L 163.445312 756.273438 C 163.429688 755.875 163.335938 755.492188 163.167969 755.128906 C 163 754.769531 162.769531 754.453125 162.476562 754.179688 C 162.179688 753.910156 161.847656 753.707031 161.472656 753.570312 C 161.097656 753.433594 160.707031 753.371094 160.308594 753.386719 C 159.910156 753.40625 159.527344 753.5 159.167969 753.667969 C 158.804688 753.835938 158.488281 754.066406 158.21875 754.363281 C 157.949219 754.65625 157.746094 754.992188 157.605469 755.367188 C 157.46875 755.742188 157.410156 756.128906 157.429688 756.53125 L 159.867188 813.492188 L 58.074219 817.828125 L 58.691406 823.851562 L 160.121094 819.515625 L 162.289062 870.234375 L 63.851562 874.433594 L 64.457031 880.453125 L 162.558594 876.285156 L 164.726562 927 L 69.707031 931.003906 L 70.308594 937.027344 L 165.101562 932.992188 L 167.269531 983.710938 L 75.484375 987.625 L 76.101562 993.644531 L 167.507812 989.6875 L 169.691406 1040.871094 L 175.710938 1040.871094 L 173.496094 989.414062 L 263.324219 985.589844 L 265.6875 1040.871094 L 271.707031 1040.871094 L 269.328125 985.335938 L 507.5625 975.203125 L 510.375 1040.886719 L 516.394531 1040.886719 L 513.578125 974.949219 L 603.40625 971.125 L 606.417969 1040.886719 L 612.4375 1040.886719 L 609.425781 970.867188 L 655.410156 968.910156 L 655.859375 962.890625 L 609.214844 964.878906 L 606.867188 914.128906 L 659.53125 911.886719 L 659.984375 905.867188 L 606.582031 908.140625 L 604.402344 857.421875 L 663.820312 854.894531 L 664.285156 848.871094 L 604.101562 851.429688 L 601.933594 800.726562 L 668.136719 797.914062 L 668.589844 791.890625 Z M 166.15625 819.246094 L 255.984375 815.421875 L 258.148438 866.136719 L 168.320312 869.960938 Z M 168.578125 875.984375 L 258.40625 872.160156 L 260.570312 922.863281 L 170.757812 926.699219 Z M 173.183594 983.425781 L 171.015625 932.707031 L 260.796875 928.882812 L 262.980469 979.601562 Z M 261.957031 815.164062 L 500.1875 805.019531 L 502.355469 855.734375 L 264.152344 865.882812 Z M 264.394531 871.902344 L 502.609375 861.742188 L 504.792969 912.460938 L 266.5625 922.605469 Z M 268.984375 979.34375 L 266.816406 928.628906 L 505.046875 918.480469 L 507.214844 969.183594 Z M 506.191406 804.71875 L 596.019531 800.894531 L 598.203125 851.597656 L 508.375 855.433594 Z M 508.628906 861.441406 L 598.457031 857.617188 L 600.625 908.335938 L 510.828125 912.25 Z M 603.0625 965.058594 L 513.234375 968.882812 L 511.082031 918.269531 L 600.910156 914.429688 Z M 603.0625 965.058594 " fill-opacity="1" fill-rule="nonzero"/><g clip-path="url(#efa04e7cfd)"><path fill="#03989e" d="M 433.488281 1054.207031 L 340.726562 1054.207031 C 340.082031 1054.207031 339.445312 1054.144531 338.816406 1054.019531 C 338.1875 1053.894531 337.574219 1053.707031 336.980469 1053.464844 C 336.390625 1053.21875 335.824219 1052.914062 335.292969 1052.558594 C 334.757812 1052.203125 334.261719 1051.796875 333.808594 1051.34375 C 333.355469 1050.886719 332.949219 1050.394531 332.59375 1049.859375 C 332.234375 1049.324219 331.933594 1048.761719 331.6875 1048.167969 C 331.445312 1047.574219 331.257812 1046.960938 331.132812 1046.332031 C 331.007812 1045.703125 330.945312 1045.066406 330.945312 1044.421875 L 330.945312 625.167969 C 330.941406 624.710938 330.980469 624.257812 331.058594 623.808594 C 331.136719 623.355469 331.257812 622.917969 331.414062 622.488281 C 331.574219 622.058594 331.773438 621.648438 332.003906 621.253906 C 332.238281 620.863281 332.507812 620.496094 332.808594 620.152344 C 333.109375 619.804688 333.441406 619.492188 333.796875 619.207031 C 334.15625 618.925781 334.539062 618.675781 334.941406 618.460938 C 335.34375 618.246094 335.765625 618.070312 336.199219 617.933594 C 336.636719 617.796875 337.082031 617.699219 337.535156 617.640625 L 450.640625 602.707031 C 451.1875 602.628906 451.738281 602.613281 452.292969 602.65625 C 452.84375 602.699219 453.382812 602.800781 453.914062 602.964844 C 454.445312 603.128906 454.949219 603.347656 455.429688 603.621094 C 455.910156 603.898438 456.355469 604.21875 456.765625 604.59375 C 457.175781 604.96875 457.539062 605.378906 457.859375 605.835938 C 458.175781 606.289062 458.441406 606.769531 458.65625 607.285156 C 458.867188 607.796875 459.019531 608.324219 459.113281 608.871094 C 459.210938 609.417969 459.242188 609.96875 459.214844 610.519531 L 443.265625 1044.722656 C 443.246094 1045.355469 443.167969 1045.976562 443.027344 1046.589844 C 442.890625 1047.203125 442.691406 1047.800781 442.4375 1048.375 C 442.183594 1048.953125 441.875 1049.5 441.515625 1050.015625 C 441.15625 1050.53125 440.75 1051.011719 440.296875 1051.449219 C 439.847656 1051.886719 439.355469 1052.277344 438.828125 1052.621094 C 438.300781 1052.964844 437.746094 1053.257812 437.160156 1053.492188 C 436.578125 1053.730469 435.976562 1053.90625 435.359375 1054.027344 C 434.742188 1054.148438 434.117188 1054.207031 433.488281 1054.207031 Z M 433.488281 1054.207031 " fill-opacity="1" fill-rule="nonzero"/></g><path fill="#fefaed" d="M 42.109375 761.0625 C 42.320312 761.4375 42.574219 761.773438 42.878906 762.074219 C 43.179688 762.378906 43.519531 762.632812 43.894531 762.835938 C 44.273438 763.042969 44.667969 763.191406 45.085938 763.28125 C 45.503906 763.375 45.925781 763.40625 46.355469 763.378906 L 48.113281 763.257812 C 48.40625 763.238281 48.695312 763.242188 48.988281 763.277344 C 49.277344 763.3125 49.5625 763.375 49.839844 763.464844 C 50.117188 763.554688 50.382812 763.671875 50.640625 763.8125 C 50.894531 763.953125 51.132812 764.117188 51.359375 764.304688 C 51.582031 764.496094 51.785156 764.703125 51.96875 764.929688 C 52.152344 765.15625 52.3125 765.402344 52.445312 765.660156 C 52.582031 765.917969 52.691406 766.1875 52.777344 766.46875 C 52.859375 766.746094 52.917969 767.03125 52.945312 767.324219 L 52.945312 767.867188 L 673.601562 725.714844 L 673.601562 724.976562 C 673.640625 724.429688 673.773438 723.910156 674 723.410156 C 674.230469 722.914062 674.539062 722.472656 674.925781 722.089844 C 675.316406 721.703125 675.761719 721.398438 676.261719 721.175781 C 676.757812 720.953125 677.28125 720.824219 677.828125 720.792969 L 681.273438 720.566406 C 681.734375 720.535156 682.175781 720.4375 682.605469 720.273438 C 683.035156 720.105469 683.429688 719.882812 683.792969 719.59375 C 684.152344 719.308594 684.460938 718.972656 684.71875 718.59375 C 684.976562 718.210938 685.171875 717.800781 685.304688 717.359375 Z M 42.109375 761.0625 " fill-opacity="1" fill-rule="nonzero"/><path fill="#00c2cb" d="M 452.21875 858.234375 L 452.007812 864.257812 L 330.945312 869.417969 L 330.945312 863.398438 Z M 330.945312 982.339844 L 447.839844 977.355469 L 448.066406 971.335938 L 330.945312 976.332031 Z M 330.945312 741.476562 L 330.945312 749.003906 L 454.445312 740.632812 L 454.71875 733.105469 Z M 330.945312 741.476562 " fill-opacity="1" fill-rule="nonzero"/><path fill="#fefaed" d="M 86.753906 690.773438 L 87.914062 692.171875 L 87.914062 696.734375 L 166.472656 692.429688 L 166.472656 692.171875 L 171.453125 686.121094 Z M 86.753906 690.773438 " fill-opacity="1" fill-rule="nonzero"/><g clip-path="url(#838bf8e607)"><g clip-path="url(#e856619026)"><g clip-path="url(#045ee1565b)"><path fill="#00c2cb" d="M 366.300781 111.210938 L 363.21875 108.007812 L 368.820312 102.613281 L 371.902344 105.816406 Z M 355.09375 122.007812 L 352.007812 118.808594 L 357.609375 113.410156 L 360.695312 116.609375 Z M 343.886719 132.804688 L 340.804688 129.601562 L 346.40625 124.207031 L 349.488281 127.410156 Z M 332.679688 143.601562 L 329.597656 140.398438 L 335.199219 135 L 338.28125 138.203125 Z M 321.472656 154.394531 L 318.386719 151.191406 L 323.996094 145.792969 L 327.078125 148.996094 Z M 215.152344 130.820312 L 214.753906 126.390625 C 217.5625 126.140625 220.390625 126.300781 223.144531 126.871094 L 222.242188 131.222656 C 219.917969 130.746094 217.527344 130.605469 215.152344 130.820312 Z M 234.957031 137.738281 C 233.960938 136.875 232.878906 136.082031 231.734375 135.375 L 230.136719 134.382812 C 229.742188 134.132812 229.324219 133.898438 228.914062 133.671875 L 231.035156 129.765625 C 231.519531 130.03125 232.011719 130.3125 232.480469 130.601562 L 234.078125 131.59375 C 235.421875 132.425781 236.695312 133.363281 237.871094 134.382812 Z M 310.074219 165.160156 L 307.171875 161.789062 C 308.527344 160.625 309.867188 159.402344 311.164062 158.152344 L 312.785156 156.59375 L 315.871094 159.792969 L 314.246094 161.355469 C 312.894531 162.65625 311.492188 163.9375 310.074219 165.160156 Z M 202.097656 136.042969 L 199.324219 132.566406 C 201.523438 130.8125 203.96875 129.394531 206.589844 128.351562 L 208.238281 132.476562 C 206.019531 133.363281 203.953125 134.5625 202.097656 136.042969 Z M 242.414062 149.628906 C 241.789062 147.320312 240.832031 145.128906 239.574219 143.121094 L 243.34375 140.761719 C 244.832031 143.140625 245.964844 145.730469 246.710938 148.460938 Z M 297.246094 174.535156 L 294.914062 170.746094 C 297.066406 169.425781 299.183594 168 301.21875 166.515625 L 303.847656 170.101562 C 301.714844 171.660156 299.496094 173.152344 297.246094 174.535156 Z M 194.113281 147.613281 L 189.878906 146.238281 C 190.238281 145.140625 190.664062 144.046875 191.152344 142.996094 C 191.847656 141.496094 192.667969 140.054688 193.59375 138.714844 L 197.261719 141.230469 C 196.472656 142.371094 195.78125 143.59375 195.191406 144.863281 C 194.777344 145.753906 194.414062 146.679688 194.113281 147.613281 Z M 246.3125 165.070312 L 242.078125 163.695312 C 242.183594 163.371094 242.285156 163.050781 242.375 162.726562 C 242.921875 160.765625 243.222656 158.734375 243.273438 156.6875 L 247.71875 156.789062 C 247.660156 159.207031 247.304688 161.605469 246.65625 163.921875 C 246.546875 164.304688 246.433594 164.691406 246.3125 165.070312 Z M 283.089844 181.761719 L 281.390625 177.65625 C 283.722656 176.691406 286.039062 175.617188 288.289062 174.46875 L 290.316406 178.425781 C 287.960938 179.628906 285.53125 180.75 283.089844 181.761719 Z M 189.558594 162.859375 C 188.792969 160.140625 188.433594 157.332031 188.492188 154.527344 L 192.9375 154.613281 C 192.890625 156.988281 193.195312 159.359375 193.839844 161.660156 Z M 267.96875 186.660156 L 266.941406 182.332031 C 269.394531 181.746094 271.855469 181.058594 274.257812 180.28125 L 275.628906 184.507812 C 273.117188 185.320312 270.542969 186.042969 267.96875 186.660156 Z M 236.78125 178.6875 L 234.027344 175.195312 C 235.917969 173.710938 237.5625 171.976562 238.917969 170.046875 L 242.5625 172.59375 C 240.953125 174.882812 239.011719 176.933594 236.78125 178.6875 Z M 252.261719 189.101562 L 251.925781 184.671875 C 254.445312 184.480469 256.984375 184.191406 259.476562 183.800781 L 260.164062 188.191406 C 257.550781 188.597656 254.894531 188.90625 252.261719 189.101562 Z M 198.457031 176.894531 C 196.328125 175.058594 194.480469 172.910156 192.972656 170.527344 L 196.730469 168.148438 C 198.007812 170.167969 199.5625 171.976562 201.367188 173.53125 Z M 236.363281 189.042969 L 236.734375 184.609375 C 239.25 184.820312 241.804688 184.933594 244.332031 184.941406 L 244.3125 189.386719 C 241.671875 189.375 238.996094 189.257812 236.363281 189.042969 Z M 220.667969 186.457031 L 221.34375 183.734375 L 220.164062 180.15625 L 227.550781 177.722656 L 228.945312 181.941406 L 225.660156 183.027344 C 226.835938 183.265625 228.011719 183.480469 229.1875 183.671875 L 228.464844 188.058594 C 225.855469 187.628906 223.234375 187.089844 220.667969 186.457031 Z M 206.773438 189.246094 L 205.382812 185.023438 L 210.476562 183.347656 C 209.050781 182.824219 207.628906 182.269531 206.234375 181.691406 C 206.003906 181.597656 205.777344 181.496094 205.546875 181.394531 L 207.363281 177.335938 C 207.550781 177.425781 207.75 177.503906 207.945312 177.585938 C 210.070312 178.472656 212.253906 179.292969 214.429688 180.019531 L 213.171875 183.796875 L 214.164062 186.8125 Z M 192.15625 194.277344 L 190.578125 190.121094 C 193.015625 189.195312 195.503906 188.300781 197.980469 187.46875 L 199.402344 191.679688 C 196.984375 192.5 194.542969 193.371094 192.15625 194.277344 Z M 177.992188 200.277344 L 176.105469 196.25 C 178.464844 195.140625 180.882812 194.066406 183.28125 193.046875 L 185.015625 197.144531 C 182.664062 198.140625 180.300781 199.191406 177.992188 200.277344 Z M 164.308594 207.324219 L 162.125 203.445312 C 164.398438 202.167969 166.722656 200.914062 169.042969 199.71875 L 171.082031 203.667969 C 168.808594 204.84375 166.527344 206.066406 164.308594 207.324219 Z M 151.195312 215.375 L 148.726562 211.671875 C 150.898438 210.226562 153.128906 208.800781 155.347656 207.433594 L 157.679688 211.226562 C 155.5 212.5625 153.320312 213.953125 151.195312 215.375 Z M 138.722656 224.386719 L 135.984375 220.886719 C 138.039062 219.28125 140.15625 217.695312 142.269531 216.164062 L 144.878906 219.765625 C 142.800781 221.261719 140.738281 222.816406 138.722656 224.386719 Z M 126.964844 234.316406 L 123.96875 231.027344 C 125.898438 229.269531 127.894531 227.523438 129.882812 225.84375 L 132.75 229.242188 C 130.800781 230.886719 128.855469 232.597656 126.964844 234.316406 Z M 115.984375 245.09375 L 112.746094 242.042969 C 114.542969 240.148438 116.394531 238.257812 118.257812 236.429688 L 121.371094 239.601562 C 119.546875 241.390625 117.734375 243.242188 115.984375 245.09375 Z M 105.839844 256.671875 L 102.386719 253.871094 C 104.03125 251.851562 105.738281 249.828125 107.457031 247.863281 L 110.800781 250.789062 C 109.121094 252.710938 107.449219 254.691406 105.839844 256.671875 Z M 96.59375 268.980469 L 92.945312 266.445312 C 94.429688 264.304688 95.976562 262.160156 97.546875 260.070312 L 101.101562 262.738281 C 99.566406 264.785156 98.050781 266.882812 96.59375 268.980469 Z M 88.300781 281.949219 L 84.46875 279.695312 C 85.789062 277.445312 87.167969 275.191406 88.578125 272.988281 L 92.328125 275.386719 C 90.949219 277.539062 89.59375 279.75 88.300781 281.949219 " fill-opacity="1" fill-rule="nonzero"/></g></g></g><g clip-path="url(#55282056da)"><g clip-path="url(#51d01a285d)"><g clip-path="url(#a5d484aacf)"><path fill="#00c2cb" d="M 67.519531 332.160156 C 57.761719 329.433594 52.058594 319.316406 54.785156 309.5625 C 57.507812 299.804688 67.628906 294.109375 77.386719 296.832031 C 87.144531 299.558594 92.847656 309.675781 90.121094 319.433594 C 87.394531 329.1875 77.277344 334.886719 67.519531 332.160156 Z M 97.789062 301.09375 C 89.816406 286.945312 71.878906 281.933594 57.734375 289.90625 C 43.582031 297.875 38.574219 315.800781 46.546875 329.953125 L 60.980469 355.570312 L 86.601562 341.140625 C 100.753906 333.171875 105.761719 315.246094 97.789062 301.09375 " fill-opacity="1" fill-rule="nonzero"/></g></g></g><g clip-path="url(#9be639ed26)"><g clip-path="url(#f43ac241e5)"><g clip-path="url(#8065a31e05)"><g clip-path="url(#772b4cf7b2)"><g clip-path="url(#7ea8ed684f)"><path fill="#00c2cb" d="M 53.738281 365.28125 C 54.386719 362.960938 56.792969 361.609375 59.109375 362.257812 C 61.433594 362.90625 62.792969 365.308594 62.144531 367.628906 C 61.496094 369.949219 59.089844 371.304688 56.765625 370.65625 C 54.445312 370.007812 53.089844 367.601562 53.738281 365.28125 " fill-opacity="1" fill-rule="nonzero"/></g></g></g></g></g><g clip-path="url(#e2013b1384)"><g clip-path="url(#d4aefc8888)"><g clip-path="url(#33d12d4a27)"><g clip-path="url(#6d712c7ac9)"><g clip-path="url(#9c34a2210b)"><path fill="#00c2cb" d="M 386.195312 108.007812 C 385.027344 104.757812 384.300781 101.347656 383.34375 98.019531 C 383.183594 97.460938 383.101562 97.109375 383.648438 96.675781 C 389.699219 91.804688 395.066406 86.207031 400.523438 80.703125 C 400.628906 80.59375 400.765625 80.515625 400.988281 80.34375 C 406.023438 90.351562 411.035156 100.316406 416.148438 110.46875 C 417.78125 108.339844 419.328125 106.351562 420.84375 104.339844 C 421.398438 103.621094 421.039062 102.796875 420.914062 102.050781 C 419.035156 91.332031 417.28125 80.578125 415.128906 69.90625 C 414.546875 67.023438 415.230469 65.308594 417.179688 63.363281 C 421.710938 58.863281 425.882812 54.03125 429.117188 48.472656 C 430.308594 46.421875 431.300781 44.285156 431.691406 41.90625 C 431.984375 40.136719 431.625 38.773438 430.765625 37.964844 C 429.890625 37.167969 428.503906 36.921875 426.761719 37.359375 C 424.421875 37.945312 422.375 39.105469 420.421875 40.457031 C 415.140625 44.125 410.660156 48.667969 406.535156 53.542969 C 404.753906 55.648438 403.097656 56.46875 400.179688 56.117188 C 389.371094 54.832031 378.507812 53.945312 367.660156 52.941406 C 366.914062 52.871094 366.066406 52.589844 365.390625 53.195312 C 363.507812 54.863281 361.648438 56.566406 359.65625 58.371094 C 370.191406 62.640625 380.527344 66.835938 390.910156 71.050781 C 390.761719 71.285156 390.691406 71.425781 390.59375 71.546875 C 385.542969 77.421875 380.394531 83.222656 376.019531 89.648438 C 375.632812 90.21875 375.277344 90.171875 374.710938 90.054688 C 371.316406 89.367188 367.859375 88.914062 364.519531 88.015625 C 362.191406 87.382812 360.550781 87.792969 359.253906 89.886719 C 359.773438 90.195312 360.34375 90.542969 360.925781 90.867188 C 364.050781 92.617188 367.164062 94.382812 370.308594 96.09375 C 371.027344 96.480469 371.367188 96.894531 371.402344 97.773438 C 371.460938 99.179688 371.882812 100.253906 372.636719 100.960938 C 373.40625 101.65625 374.507812 101.988281 375.917969 101.933594 C 376.792969 101.894531 377.234375 102.203125 377.683594 102.886719 C 379.636719 105.882812 381.648438 108.851562 383.640625 111.816406 C 384.015625 112.375 384.40625 112.914062 384.753906 113.410156 C 386.738281 111.945312 387.015625 110.277344 386.195312 108.007812 " fill-opacity="1" fill-rule="nonzero"/></g></g></g></g></g><g clip-path="url(#8fefe92ce1)"><g clip-path="url(#752bcfd248)"><path fill="#00c2cb" d="M 478.367188 665.398438 L 665.484375 655.34375 L 668.625 713.730469 L 481.507812 723.785156 L 478.367188 665.398438 " fill-opacity="1" fill-rule="nonzero"/></g></g><g fill="#ffffff" fill-opacity="1"><g transform="translate(512.907833, 702.094788)"><g><path d="M 3.769531 -0.328125 L 6.390625 -0.558594 L 3.832031 -29.894531 L 1.210938 -29.664062 Z M 19.914062 -1.738281 L 24.605469 -2.148438 L 24.597656 -2.257812 C 23.859375 -2.191406 22.726562 -2.765625 21.6875 -3.605469 L 7.082031 -16.960938 L 15.816406 -28.628906 C 16.960938 -30.035156 18.4375 -31.054688 19.582031 -31.15625 L 19.570312 -31.265625 L 12.699219 -30.667969 L 12.710938 -30.554688 L 13.300781 -30.609375 C 14.890625 -30.746094 15.050781 -28.898438 13.585938 -26.910156 L 5.113281 -15.226562 Z M 19.914062 -1.738281 "/></g></g></g><g fill="#ffffff" fill-opacity="1"><g transform="translate(537.586311, 699.941754)"><g><path d="M 1.515625 -0.132812 L 3.730469 -0.324219 L 2.398438 -15.585938 C 3.394531 -17.832031 5.621094 -20.070312 7.0625 -20.199219 C 7.875 -20.269531 8.703125 -19.707031 8.761719 -19.042969 C 8.820312 -18.378906 9.539062 -17.808594 10.207031 -17.867188 C 10.871094 -17.925781 11.445312 -18.605469 11.386719 -19.273438 C 11.28125 -20.453125 9.59375 -21.460938 8.003906 -21.324219 C 6.195312 -21.164062 3.480469 -18.546875 2.367188 -15.953125 L 1.976562 -20.425781 L 0.871094 -20.328125 L -0.753906 -19.738281 L -0.738281 -19.554688 L -0.628906 -19.5625 C -0.398438 -19.507812 -0.101562 -18.679688 -0.0273438 -17.828125 Z M 1.515625 -0.132812 "/></g></g></g><g fill="#ffffff" fill-opacity="1"><g transform="translate(550.923034, 698.778213)"><g><path d="M 6.496094 -0.195312 C 8.050781 -0.328125 10.957031 -2 13.242188 -4.394531 C 13.390625 -2.695312 15.238281 -1.144531 16.9375 -1.292969 C 18.339844 -1.414062 19.859375 -3.222656 20.007812 -4.910156 L 19.738281 -5.035156 C 19.636719 -4.058594 18.644531 -3.042969 17.6875 -2.957031 C 16.652344 -2.867188 15.578125 -3.667969 15.496094 -4.589844 L 14.523438 -15.75 C 14.210938 -19.296875 11.257812 -21.605469 8.449219 -21.359375 C 4.605469 -21.027344 1.175781 -16.816406 1.320312 -15.15625 C 1.386719 -14.378906 2.011719 -13.652344 2.601562 -13.703125 C 3.265625 -13.761719 3.832031 -14.519531 3.796875 -14.925781 C 3.757812 -15.40625 2.929688 -16.339844 2.894531 -16.746094 C 2.792969 -17.925781 5.363281 -20.867188 8.246094 -21.121094 C 10.019531 -21.273438 11.976562 -19.324219 12.234375 -16.367188 L 12.625 -11.898438 C 4.808594 -9.761719 1.28125 -7.484375 1.632812 -3.492188 C 1.792969 -1.644531 4.207031 0.00390625 6.496094 -0.195312 Z M 7.503906 -1.472656 C 5.730469 -1.320312 3.875 -2.535156 3.75 -3.9375 C 3.402344 -7.929688 6.234375 -10.035156 12.5625 -11.742188 L 12.601562 -11.746094 L 13.230469 -4.542969 C 11.515625 -2.828125 9.019531 -1.605469 7.503906 -1.472656 Z M 7.503906 -1.472656 "/></g></g></g><g fill="#ffffff" fill-opacity="1"><g transform="translate(570.835758, 697.040959)"><g><path d="M 1.476562 -0.128906 L 3.695312 -0.324219 L 1.136719 -29.65625 L 0.0273438 -29.5625 L -1.597656 -28.972656 L -1.582031 -28.789062 L -1.46875 -28.796875 C -1.242188 -28.742188 -0.945312 -27.914062 -0.871094 -27.0625 Z M 12.636719 -1.101562 L 16.109375 -1.40625 C 16.070312 -1.4375 16.023438 -1.511719 15.949219 -1.539062 L 4.601562 -12.949219 L 10.855469 -18.929688 C 12.339844 -20.285156 13.847656 -21.347656 14.625 -21.417969 L 14.613281 -21.527344 L 8.296875 -20.976562 L 8.304688 -20.863281 L 9.082031 -20.933594 C 11.078125 -21.105469 10.546875 -19.085938 8.515625 -17.160156 L 2.710938 -11.589844 L 11.96875 -2.347656 C 12.542969 -1.726562 12.921875 -1.238281 12.625 -1.214844 Z M 12.636719 -1.101562 "/></g></g></g><g fill="#ffffff" fill-opacity="1"><g transform="translate(586.906323, 695.638908)"><g><path d="M 10.015625 -23.472656 L 14.792969 -28.429688 C 15.949219 -29.683594 17.101562 -30.976562 17.089844 -31.125 C 17.042969 -31.640625 16.402344 -32.179688 15.882812 -32.136719 C 15.738281 -32.125 14.664062 -30.765625 13.667969 -29.375 L 9.691406 -23.742188 Z M 11.746094 -0.652344 C 16.804688 -1.09375 21.304688 -6.699219 20.847656 -11.945312 C 20.390625 -17.191406 14.988281 -21.933594 9.925781 -21.488281 C 4.863281 -21.046875 0.328125 -15.441406 0.785156 -10.195312 C 1.242188 -4.949219 6.683594 -0.210938 11.746094 -0.652344 Z M 11.726562 -0.875 C 7.882812 -0.539062 3.671875 -5.273438 3.222656 -10.40625 C 2.777344 -15.542969 6.101562 -20.933594 9.945312 -21.269531 C 13.789062 -21.605469 17.960938 -16.867188 18.410156 -11.730469 C 18.855469 -6.597656 15.566406 -1.210938 11.726562 -0.875 Z M 11.726562 -0.875 "/></g></g></g><g fill="#ffffff" fill-opacity="1"><g transform="translate(610.291767, 693.598683)"><g><path d="M 7.089844 -0.246094 L 7.753906 -0.304688 L 11.449219 -13.84375 L 16.472656 -1.066406 L 17.136719 -1.121094 C 18.859375 -7.414062 20.542969 -13.742188 22.300781 -20.039062 C 22.609375 -21.21875 23.046875 -22.152344 23.417969 -22.183594 L 23.40625 -22.292969 L 21.300781 -22.109375 L 21.3125 -22 L 21.382812 -22.007812 C 21.570312 -22.023438 21.597656 -21.28125 21.414062 -20.40625 L 17.46875 -5.023438 L 11.824219 -19.347656 C 11.484375 -20.285156 11.371094 -21.132812 11.59375 -21.152344 L 11.667969 -21.15625 L 11.65625 -21.269531 L 8.109375 -20.960938 L 8.121094 -20.847656 C 8.453125 -20.878906 9.050781 -20 9.445312 -18.917969 C 9.925781 -17.65625 10.445312 -16.398438 10.925781 -15.136719 L 8.089844 -4.128906 L 2.3125 -18.292969 C 1.890625 -19.300781 1.730469 -20.292969 1.949219 -20.308594 L 2.023438 -20.316406 L 2.015625 -20.425781 L -1.53125 -20.117188 L -1.523438 -20.007812 C -1.152344 -20.039062 -0.675781 -19.261719 -0.210938 -18.222656 Z M 7.089844 -0.246094 "/></g></g></g></svg>