<svg width="148" height="16" viewBox="0 0 148 16" fill="none" xmlns="http://www.w3.org/2000/svg">
<path d="M147.456 7.10322L134.777 0.13886C134.257 -0.147021 133.591 0.0226853 133.291 0.517825C132.99 1.01307 133.169 1.64623 133.689 1.93221L142.854 6.96644H1.0883C0.48723 6.96644 0 7.43011 0 8.00187C0 8.57353 0.48723 9.03729 1.0883 9.03729H142.847L133.689 14.0677C133.169 14.3537 132.99 14.9868 133.291 15.4821C133.492 15.8142 133.858 16 134.234 16C134.419 16 134.606 15.9551 134.777 15.861L147.456 8.89658C147.793 8.71165 148 8.36975 148 7.9999C148 7.63005 147.793 7.28815 147.456 7.10322Z" fill="#AB85FF"/>
</svg>
